<svg width="72" height="59" viewBox="0 0 72 59" fill="none" xmlns="http://www.w3.org/2000/svg">
<path fill-rule="evenodd" clip-rule="evenodd" d="M32.8677 0.0257484C42.8135 -0.452396 50.61 5.81997 57.6307 11.2474C64.6159 16.6473 71.4901 22.6506 71.9657 30.2508C72.4597 38.145 67.5773 45.7134 60.129 51.1715C52.8454 56.5089 42.8971 59.6025 32.8677 58.9017C23.5461 58.2503 16.3412 53.0713 10.1567 47.6795C4.46097 42.7138 -0.163413 36.8649 0.00442906 30.2508C0.169497 23.746 5.59286 18.4834 11.0244 13.4879C17.2439 7.76768 23.1787 0.491544 32.8677 0.0257484Z" fill="#FFBF9D" fill-opacity="0.51"/>
<path d="M47.896 36.667C47.899 36.95 47.826 37.32 47.75 37.625C47.219 39.77 44.861 42.177 41.542 41.958C38.534 41.76 36.084 40.316 36.084 38.291C36.084 36.266 38.528 34.624 41.542 34.624C44.556 34.624 47.877 34.642 47.896 36.667Z" fill="#EA596E"/>
<path d="M41.542 34.964C39.923 34.964 36.228 35.412 35.38 35.412C33.882 35.412 32.667 36.352 32.667 37.512C32.667 38.07 32.953 38.574 33.411 38.95C33.411 38.95 34.417 39.959 36.229 39.475C37.022 39.263 38.312 37.689 40.583 37.439C41.714 37.314 43.833 38.189 47.557 38.21C47.717 37.866 47.75 37.627 47.75 37.627C47.75 35.6 44.556 34.964 41.542 34.964Z" fill="#DD2E44"/>
<path d="M47.75 37.625C47.75 37.625 49.934 37.182 51.292 35.396C52.875 33.313 52.667 31.084 52.667 31.084C54.271 28.084 52.167 25.271 52.167 25.271C51.958 22.104 50 20.792 50 20.792C48.729 17.771 45.917 16.959 45.917 16.959C43.709 14.376 39.792 14.459 39.792 14.459C39.792 14.459 36.122 13.114 31.084 14.626C30.251 14.876 27.459 15.459 25.417 16.709C18.981 20.649 18.494 26.793 18.584 27.792C19.083 33.375 23 34.375 25.5 34.958C26.083 36.541 28.229 39.458 32.083 38.375C36.833 37.542 38.833 36.125 40 36.125C41.167 36.125 44.417 37.375 47.75 37.625Z" fill="#F4ABBA"/>
<path d="M35.737 28.648C38.065 27.393 39.327 27.51 40.441 27.611C40.795 27.643 41.13 27.668 41.469 27.666C43.453 27.621 45.06 26.785 45.771 25.976C45.8525 25.8755 45.892 25.7473 45.8811 25.6183C45.8702 25.4894 45.8098 25.3696 45.7126 25.2841C45.6154 25.1987 45.4889 25.1542 45.3596 25.1599C45.2303 25.1657 45.1082 25.2213 45.019 25.315C44.471 25.939 43.12 26.628 41.446 26.666C41.146 26.675 40.845 26.645 40.533 26.616C39.338 26.505 37.854 26.369 35.262 27.768C34.597 28.127 33.685 28.26 32.697 28.36C30.5 25.189 31.822 22.427 32.2 21.769C32.237 21.771 32.273 21.783 32.311 21.783C32.711 21.783 33.113 21.685 33.477 21.479C33.5879 21.4115 33.6682 21.3035 33.7009 21.1779C33.7336 21.0522 33.7161 20.9188 33.6522 20.8058C33.5883 20.6928 33.4829 20.6091 33.3584 20.5724C33.2339 20.5356 33.1 20.5488 32.985 20.609C32.6704 20.7822 32.302 20.8303 31.9535 20.7437C31.605 20.6572 31.302 20.4423 31.105 20.142C31.0306 20.0372 30.9187 19.965 30.7925 19.9404C30.6664 19.9159 30.5356 19.9409 30.4273 20.0103C30.3191 20.0797 30.2418 20.188 30.2113 20.3129C30.1809 20.4378 30.1998 20.5697 30.264 20.681C30.501 21.052 30.835 21.331 31.212 21.518C30.691 22.576 29.702 25.358 31.584 28.469C30.26 28.599 28.934 28.786 27.896 29.455C27.1664 29.933 26.53 30.5399 26.018 31.246C25.389 31.138 23.086 30.571 22.684 28.015C22.934 27.821 23.136 27.565 23.261 27.249C23.2851 27.188 23.297 27.1227 23.296 27.0571C23.295 26.9914 23.281 26.9266 23.2549 26.8663C23.2288 26.8061 23.1911 26.7515 23.1439 26.7058C23.0968 26.6601 23.0411 26.6242 22.98 26.6C22.9189 26.5759 22.8537 26.564 22.788 26.565C22.7224 26.566 22.6576 26.58 22.5973 26.6061C22.537 26.6322 22.4825 26.6699 22.4368 26.7171C22.3911 26.7642 22.3551 26.82 22.331 26.881C22.2932 26.9861 22.233 27.0818 22.1546 27.1614C22.0762 27.241 21.9815 27.3026 21.877 27.342C21.7711 27.3772 21.6588 27.3892 21.5479 27.3771C21.4369 27.365 21.3298 27.3292 21.234 27.272C21.1766 27.2401 21.1135 27.2198 21.0483 27.2123C20.983 27.2048 20.917 27.2102 20.8538 27.2282C20.7263 27.2646 20.6184 27.3501 20.554 27.466C20.4895 27.5819 20.4738 27.7187 20.5102 27.8462C20.5465 27.9737 20.6321 28.0816 20.748 28.146C21.032 28.304 21.336 28.384 21.638 28.384C21.675 28.384 21.71 28.367 21.747 28.365C22.223 30.778 24.13 31.838 25.479 32.159C25.3024 32.5349 25.1905 32.9379 25.148 33.351C25.1363 33.4831 25.1776 33.6144 25.2628 33.716C25.3479 33.8177 25.4699 33.8813 25.602 33.893L25.647 33.895C25.772 33.895 25.8924 33.8482 25.9846 33.7638C26.0768 33.6794 26.134 33.5635 26.145 33.439C26.253 32.226 27.41 30.959 28.438 30.294C29.402 29.673 30.813 29.542 32.179 29.415C33.504 29.294 34.756 29.178 35.737 28.648ZM48.603 27.144C48.5715 27.2017 48.5516 27.265 48.5446 27.3303C48.5375 27.3956 48.5434 27.4617 48.5619 27.5247C48.5803 27.5878 48.6111 27.6466 48.6523 27.6978C48.6935 27.7489 48.7443 27.7915 48.802 27.823C48.8596 27.8545 48.9229 27.8744 48.9883 27.8814C49.0536 27.8885 49.1196 27.8826 49.1827 27.8641C49.31 27.8268 49.4173 27.7404 49.481 27.624C49.5 27.59 51.323 24.175 47.91 21.88C47.7999 21.806 47.665 21.7788 47.5348 21.8043C47.4047 21.8298 47.29 21.906 47.216 22.016C47.142 22.1261 47.1147 22.261 47.1403 22.3912C47.1658 22.5213 47.2419 22.636 47.352 22.71C49.996 24.488 48.661 27.036 48.603 27.144ZM27.876 19.07C27.9554 19.0703 28.0336 19.0515 28.1043 19.0154C28.1749 18.9792 28.2358 18.9266 28.282 18.862C29.732 16.845 31.74 17.535 31.825 17.567C31.9481 17.6077 32.0823 17.5989 32.1991 17.5425C32.3159 17.4861 32.4062 17.3865 32.451 17.2648C32.4957 17.1431 32.4915 17.0087 32.439 16.8901C32.3866 16.7715 32.2901 16.6779 32.17 16.629C31.21 16.273 28.993 16.161 27.47 18.279C27.4165 18.3537 27.3847 18.4417 27.3779 18.5333C27.3712 18.6249 27.3898 18.7166 27.4318 18.7983C27.4737 18.8801 27.5373 18.9486 27.6157 18.9966C27.6941 19.0445 27.7841 19.0699 27.876 19.07ZM40.948 17.182C43.173 17.001 44.185 18.614 44.231 18.69C44.2982 18.8045 44.4082 18.8875 44.5366 18.9209C44.6002 18.9374 44.6665 18.9413 44.7316 18.9322C44.7967 18.9231 44.8593 18.9013 44.916 18.868C44.9727 18.8347 45.0222 18.7906 45.0618 18.7382C45.1014 18.6857 45.1303 18.626 45.1469 18.5624C45.1634 18.4988 45.1672 18.4325 45.1582 18.3674C45.1491 18.3024 45.1273 18.2397 45.094 18.183C45.04 18.092 43.754 15.965 40.87 16.185C40.8045 16.1901 40.7407 16.2081 40.6822 16.2379C40.6237 16.2677 40.5716 16.3087 40.5289 16.3586C40.4427 16.4594 40.4001 16.5903 40.4105 16.7225C40.4208 16.8547 40.4833 16.9774 40.5841 17.0636C40.6849 17.1498 40.8158 17.1924 40.948 17.182ZM50.098 31.793C49.852 31.779 49.581 31.974 49.559 32.25C49.557 32.268 49.398 33.969 47.649 34.544C47.5346 34.5799 47.437 34.6558 47.374 34.7578C47.311 34.8598 47.2868 34.9811 47.3059 35.0994C47.325 35.2177 47.386 35.3253 47.4778 35.4023C47.5696 35.4794 47.6861 35.5208 47.806 35.519C47.859 35.519 47.9116 35.5106 47.962 35.494C50.334 34.716 50.548 32.43 50.556 32.333C50.5665 32.2008 50.5242 32.0697 50.4384 31.9685C50.3526 31.8673 50.2302 31.8042 50.098 31.793Z" fill="#EA596E"/>
<path d="M25.347 26.934C25.3273 26.9982 25.3208 27.0656 25.3277 27.1324C25.3347 27.1991 25.355 27.2638 25.3875 27.3225C25.4199 27.3812 25.4639 27.4328 25.5167 27.4742C25.5695 27.5156 25.6302 27.5459 25.695 27.5634C25.7597 27.5808 25.8274 27.585 25.8939 27.5758C25.9603 27.5666 26.0242 27.544 26.0818 27.5096C26.1394 27.4751 26.1894 27.4294 26.229 27.3752C26.2685 27.321 26.2968 27.2594 26.312 27.194C26.4083 26.8475 26.6322 26.5504 26.9386 26.3622C27.2451 26.1741 27.6115 26.109 27.964 26.18C28.0283 26.1935 28.0946 26.1941 28.1591 26.182C28.2237 26.1698 28.2852 26.1451 28.3401 26.1091C28.3951 26.0732 28.4425 26.0268 28.4795 25.9725C28.5165 25.9183 28.5425 25.8573 28.556 25.793C28.5694 25.7287 28.5701 25.6624 28.558 25.5979C28.5458 25.5334 28.521 25.4718 28.4851 25.4169C28.4492 25.3619 28.4027 25.3145 28.3485 25.2775C28.2943 25.2405 28.2333 25.2145 28.169 25.201C27.7528 25.1166 27.3216 25.1463 26.921 25.287C25.755 23.293 25.982 21.327 25.985 21.306C26.0021 21.1747 25.9666 21.0419 25.8862 20.9367C25.8059 20.8314 25.6872 20.7622 25.556 20.744C25.425 20.7272 25.2927 20.7625 25.1875 20.8424C25.0824 20.9223 25.0129 21.0403 24.994 21.171C24.981 21.268 24.714 23.487 26.057 25.785C25.7141 26.0913 25.4675 26.4904 25.347 26.934ZM36.526 24.464C36.7256 24.2824 36.9866 24.183 37.2564 24.1858C37.5263 24.1885 37.7851 24.2933 37.981 24.479C38.0765 24.5708 38.2043 24.6212 38.3368 24.6191C38.4692 24.6171 38.5954 24.5627 38.688 24.468C38.7804 24.3729 38.8313 24.245 38.8294 24.1124C38.8275 23.9799 38.7731 23.8534 38.678 23.761C38.4521 23.5461 38.1792 23.3869 37.881 23.296C38.177 22.28 38.06 21.829 37.785 20.984C37.7306 20.8187 37.6782 20.6527 37.628 20.486L37.598 20.386C37.234 19.178 36.993 18.381 37.685 17.256C37.7545 17.143 37.7762 17.0071 37.7455 16.8781C37.7147 16.749 37.634 16.6375 37.521 16.568C37.408 16.4985 37.272 16.4768 37.143 16.5075C37.014 16.5383 36.9025 16.619 36.833 16.732C35.905 18.24 36.246 19.369 36.641 20.676L36.671 20.776C36.73 20.97 36.784 21.14 36.834 21.293C37.081 22.054 37.156 22.309 36.854 23.229C36.4763 23.2977 36.126 23.4725 35.844 23.733C35.7505 23.8243 35.6965 23.9485 35.6934 24.0791C35.6904 24.2097 35.7386 24.3363 35.8277 24.4319C35.9168 24.5274 36.0398 24.5842 36.1703 24.5902C36.3008 24.5963 36.4285 24.5509 36.526 24.464ZM42.891 21.479C43.1879 21.4799 43.4814 21.4147 43.75 21.288C43.87 21.2315 43.9627 21.1297 44.0076 21.0049C44.0525 20.8801 44.046 20.7425 43.9895 20.6225C43.933 20.5025 43.8311 20.4099 43.7063 20.3649C43.5815 20.32 43.444 20.3265 43.324 20.383C43.0782 20.4953 42.799 20.5106 42.5424 20.4259C42.2857 20.3412 42.0706 20.1626 41.94 19.926C41.9103 19.8659 41.8688 19.8124 41.818 19.7687C41.7672 19.725 41.7081 19.6919 41.6442 19.6715C41.5804 19.6511 41.5131 19.6437 41.4464 19.6498C41.3796 19.6559 41.3148 19.6753 41.2557 19.707C41.1966 19.7386 41.1445 19.7818 41.1024 19.834C41.0604 19.8862 41.0293 19.9463 41.0109 20.0108C40.9926 20.0753 40.9874 20.1428 40.9956 20.2093C41.0039 20.2758 41.0254 20.34 41.059 20.398C41.239 20.734 41.507 20.999 41.819 21.183C41.282 22.488 41.587 23.874 41.836 24.609C41.855 24.6735 41.8869 24.7335 41.9297 24.7854C41.9724 24.8373 42.0252 24.8801 42.0849 24.9111C42.1446 24.9421 42.2099 24.9608 42.2769 24.9659C42.344 24.9711 42.4114 24.9627 42.4751 24.9413C42.5389 24.9198 42.5976 24.8857 42.6479 24.841C42.6981 24.7963 42.7388 24.7419 42.7676 24.6811C42.7963 24.6203 42.8125 24.5543 42.8151 24.4871C42.8178 24.4199 42.8068 24.3529 42.783 24.29C42.615 23.792 42.289 22.534 42.781 21.464C42.819 21.466 42.854 21.479 42.891 21.479ZM47.688 30.908C47.6842 30.8424 47.6674 30.7781 47.6385 30.719C47.6097 30.6598 47.5694 30.607 47.52 30.5636C47.4706 30.5202 47.4131 30.4869 47.3508 30.4659C47.2885 30.4449 47.2226 30.4364 47.157 30.441C46.9172 30.4576 46.6765 30.4266 46.4487 30.3499C46.221 30.2732 46.0106 30.1523 45.8297 29.994C45.6488 29.8358 45.5009 29.6434 45.3945 29.4278C45.2882 29.2123 45.2255 28.9779 45.21 28.738C45.1987 28.6065 45.1369 28.4846 45.0375 28.3978C44.938 28.3111 44.8088 28.2663 44.677 28.273C44.5448 28.2825 44.4218 28.3439 44.3347 28.4437C44.2476 28.5436 44.2035 28.6738 44.212 28.806C44.253 29.396 44.478 29.928 44.82 30.361C44.016 31.307 42.963 31.576 42.376 31.645C41.857 31.707 41.403 31.654 40.878 31.592C40.397 31.537 39.853 31.474 39.18 31.494L39.175 31.495C39.155 31.209 39.087 30.792 38.87 30.445C38.7954 30.3423 38.6845 30.2717 38.5599 30.2475C38.4352 30.2233 38.306 30.2474 38.1984 30.3149C38.0909 30.3823 38.0129 30.4881 37.9803 30.6108C37.9478 30.7336 37.963 30.8641 38.023 30.976C38.157 31.191 38.182 31.534 38.182 31.701C37.678 31.882 37.242 32.148 36.848 32.405C36.144 32.863 35.589 33.225 34.754 33.037C33.998 32.864 33.241 32.829 32.599 32.919C32.499 32.668 32.341 32.368 32.097 32.137C32.0006 32.0459 31.8719 31.9968 31.7393 32.0006C31.6068 32.0043 31.4811 32.0606 31.39 32.157C31.2989 32.2534 31.2498 32.3821 31.2536 32.5147C31.2573 32.6472 31.3136 32.7729 31.41 32.864C31.496 32.945 31.564 33.063 31.619 33.181C30.516 33.635 29.963 34.394 29.937 34.431C29.8839 34.5057 29.8525 34.5935 29.846 34.6849C29.8396 34.7763 29.8584 34.8676 29.9004 34.949C29.9425 35.0304 30.0061 35.0986 30.0843 35.1463C30.1626 35.1939 30.2524 35.2191 30.344 35.219C30.423 35.2192 30.501 35.2008 30.5715 35.1651C30.6421 35.1295 30.7032 35.0777 30.75 35.014C30.755 35.006 31.304 34.271 32.387 33.974C32.947 33.82 33.75 33.833 34.533 34.011C34.752 34.061 34.955 34.078 35.152 34.081C35.245 34.299 35.281 34.558 35.286 34.654C35.2934 34.7815 35.3491 34.9013 35.4419 34.989C35.5346 35.0767 35.6573 35.1257 35.785 35.126L35.812 35.125C35.9439 35.118 36.0678 35.0591 36.1564 34.9611C36.245 34.8631 36.2912 34.734 36.285 34.602C36.2683 34.3691 36.2247 34.1389 36.155 33.916C36.616 33.749 37.017 33.488 37.394 33.243C37.966 32.87 38.507 32.517 39.214 32.494C39.806 32.473 40.294 32.53 40.765 32.585C41.239 32.64 41.705 32.676 42.219 32.646C42.31 32.899 42.303 33.237 42.289 33.35C42.2805 33.4204 42.287 33.4918 42.3081 33.5595C42.3292 33.6273 42.3644 33.6897 42.4113 33.7429C42.4582 33.7961 42.5159 33.8387 42.5805 33.868C42.645 33.8973 42.7151 33.9127 42.786 33.913C42.9072 33.9128 43.0242 33.8686 43.1153 33.7886C43.2063 33.7086 43.2652 33.5982 43.281 33.478C43.3176 33.1501 43.2977 32.8182 43.222 32.497C44.1344 32.2549 44.9519 31.7421 45.567 31.026C46.0627 31.3322 46.6415 31.4766 47.223 31.439C47.2884 31.4347 47.3523 31.4175 47.4111 31.3885C47.4698 31.3595 47.5223 31.3192 47.5655 31.2698C47.6087 31.2205 47.6417 31.1632 47.6627 31.1011C47.6838 31.039 47.6923 30.9734 47.688 30.908Z" fill="#EA596E"/>
</svg>
