<svg width="40" height="34" viewBox="0 0 40 34" fill="none" xmlns="http://www.w3.org/2000/svg">
<rect width="39.4092" height="34" fill="white"/>
<path d="M19.7046 32.9375C21.7604 32.9375 23.4269 32.0895 23.4269 31.0436C23.4269 29.9976 21.7604 29.1497 19.7046 29.1497C17.6488 29.1497 15.9823 29.9976 15.9823 31.0436C15.9823 32.0895 17.6488 32.9375 19.7046 32.9375Z" fill="#424242"/>
<path d="M19.7046 1.0625C13.2144 1.0625 7.94958 5.22484 7.94958 10.3567C7.94958 11.6955 8.41757 13.1272 9.10415 14.3889C10.0678 16.1633 11.1177 17.4755 11.4256 17.9589C12.2815 19.303 12.1584 20.7187 12.3954 21.6059C12.8419 23.2634 14.1781 23.8637 19.7015 23.8637C25.225 23.8637 26.4134 23.2927 26.9091 21.7653C27.2478 20.7267 26.9183 19.5925 27.7712 18.2511C28.0791 17.7677 29.3321 16.1659 30.2989 14.3889C30.9855 13.1272 31.4535 11.6955 31.4535 10.3567C31.4596 5.22484 26.1948 1.0625 19.7046 1.0625Z" fill="#FFD600"/>
<path d="M19.7046 24.063C23.4352 24.063 26.4595 23.5326 26.4595 22.8783C26.4595 22.224 23.4352 21.6936 19.7046 21.6936C15.9739 21.6936 12.9496 22.224 12.9496 22.8783C12.9496 23.5326 15.9739 24.063 19.7046 24.063Z" fill="#B26500"/>
<path d="M19.7046 24.063C23.4352 24.063 26.4595 23.5326 26.4595 22.8783C26.4595 22.224 23.4352 21.6936 19.7046 21.6936C15.9739 21.6936 12.9496 22.224 12.9496 22.8783C12.9496 23.5326 15.9739 24.063 19.7046 24.063Z" fill="#B26500"/>
<path d="M19.7046 23.4255C22.4235 23.4255 24.6276 23.1805 24.6276 22.8783C24.6276 22.5761 22.4235 22.3311 19.7046 22.3311C16.9856 22.3311 14.7815 22.5761 14.7815 22.8783C14.7815 23.1805 16.9856 23.4255 19.7046 23.4255Z" fill="#FFA000"/>
<path d="M22.7927 14.9308C22.7927 14.9308 23.4824 16.2058 23.1899 16.7769C22.9713 17.2019 21.6566 17.8872 21.4873 18.0014C20.7022 18.5327 21.7459 24.0524 21.7459 24.0524M16.4103 15.0795C16.2194 15.4939 15.7237 16.3466 15.9823 16.7291C16.5827 17.6189 18.0143 17.9377 18.0143 18.7558C18.0143 20.0042 16.9614 24.0497 16.9614 24.0497L16.4103 15.0795Z" stroke="#B26500" stroke-width="2" stroke-miterlimit="10"/>
<path d="M16.4103 15.0795C17.4694 13.2733 18.0143 9.15077 16.6689 9.36062C14.3998 9.7139 17.1954 16.4873 18.5716 15.7091C19.9478 14.9308 21.6535 9.3739 19.5599 9.35265C17.4663 9.3314 19.7015 16.4342 21.124 15.6453C22.2477 15.0211 24.991 9.36062 22.7373 9.36062C20.8192 9.36062 22.7958 14.9308 22.7958 14.9308" stroke="white" stroke-width="2" stroke-miterlimit="10"/>
<path d="M26.4441 23.1253C26.4441 23.1253 24.6707 23.8637 19.7046 23.8637C14.7384 23.8637 12.965 23.1253 12.965 23.1253C12.965 23.1253 12.8541 24.4906 13.2205 25.1095C13.6608 25.8533 13.9995 26.1109 13.9995 26.1109L14.1842 26.868L14.1103 27.0672C14.0149 27.3275 14.0826 27.6144 14.295 27.8189L14.4551 27.973L14.6337 28.7008L14.5721 28.8469C14.4551 29.1258 14.5352 29.4366 14.7753 29.6491L14.8923 29.7526L15.037 30.3476C15.037 30.3476 15.7698 31.697 19.7046 31.697C23.6393 31.697 24.3721 30.3476 24.3721 30.3476L24.3844 30.2972L24.4644 30.2281C24.6245 30.0926 24.6769 29.8908 24.5999 29.7101L24.5537 29.6066L24.7446 28.8203L25.0802 28.5148C25.2465 28.3634 25.2834 28.1403 25.1757 27.9544L25.0217 27.6914L25.2157 26.9025L25.3388 26.8201C25.5205 26.6475 25.5236 26.3872 25.4435 26.2092C25.3819 26.0684 25.4312 25.9091 25.5574 25.8055C25.7514 25.6461 26.0008 25.4044 26.1855 25.1042C26.5642 24.4959 26.4441 23.1253 26.4441 23.1253V23.1253Z" fill="#82AEC0"/>
<path d="M13.9995 26.1109L14.1658 26.8733C15.9577 26.8653 18.3499 26.9423 22.9405 26.3128C23.7687 26.1508 24.7631 25.8294 23.664 25.9622C23.664 25.9595 19.4491 26.3075 13.9995 26.1109V26.1109ZM14.6153 28.7061C16.5981 28.6769 20.6498 28.5069 25.0033 27.6914L25.1973 26.9025C20.6437 27.795 16.361 27.9544 14.4367 27.9756L14.6153 28.7061V28.7061ZM24.7262 28.8177C20.696 29.572 16.9244 29.7659 14.8831 29.8084L15.0155 30.3503C15.0155 30.3503 15.0802 32.0317 19.6831 32.0317C24.2859 32.0317 24.3506 30.3503 24.3506 30.3503C24.3506 30.3503 22.3863 30.8337 19.9694 30.5973C19.9439 30.5975 19.9187 30.5934 19.895 30.5851C19.8714 30.5769 19.8499 30.5647 19.8318 30.5493C19.7951 30.5181 19.7743 30.4757 19.7739 30.4313C19.7735 30.3869 19.7935 30.3442 19.8296 30.3126C19.8657 30.281 19.9149 30.263 19.9663 30.2627C21.4103 30.098 23.1344 29.8536 24.5353 29.6039L24.7262 28.8177V28.8177Z" fill="#2F7889"/>
<path d="M12.9866 23.1253C12.9866 23.1253 14.9755 23.8637 19.6861 23.8637C24.3968 23.8637 26.4226 23.1253 26.4226 23.1253" stroke="white" stroke-width="3.997" stroke-miterlimit="10" stroke-linecap="round"/>
<path d="M15.3573 2.74125C16.5611 2.48625 17.8204 2.61375 18.6825 3.51687C18.9257 3.77187 19.1135 4.07468 19.1566 4.40406C19.2428 5.0389 18.7871 5.63921 18.2453 6.08015C16.6997 7.33921 14.5045 7.95015 13.5069 9.68734C13.2729 10.0937 13.0882 10.532 12.7311 10.8641C12.3739 11.1961 11.7797 11.398 11.3148 11.1855C11.0685 11.0739 10.8992 10.8641 10.7606 10.6542C9.88622 9.31015 9.95087 7.59687 10.7206 6.205C11.5673 4.68031 13.4238 3.15031 15.3573 2.74125Z" fill="#FFFF8D"/>
<path d="M14.3012 24.4189C14.0303 24.3127 14.138 23.962 14.4336 23.9806C15.425 24.047 17.1122 24.1294 19.3443 24.1294C21.6966 24.1294 23.7656 23.978 24.9725 23.8664C25.2711 23.8398 25.385 24.1931 25.111 24.302C24.1812 24.6792 22.4786 25.1095 19.5599 25.1095C16.7119 25.1095 15.1417 24.7456 14.3012 24.4189V24.4189Z" fill="#FFD600"/>
<path d="M15.9915 27.1017C15.7852 27.1655 15.5727 27.2531 15.4681 27.4178C15.4311 27.4789 15.4096 27.548 15.4249 27.617C15.4496 27.718 15.5573 27.7897 15.6651 27.8348C15.8806 27.9251 16.1238 27.9491 16.3609 27.9517C16.8505 27.957 17.3369 27.8773 17.8203 27.7976C17.965 27.7737 18.1128 27.7498 18.2421 27.6887C18.3714 27.6276 18.4822 27.5241 18.5038 27.3992C18.5346 27.2319 18.396 27.0698 18.2267 26.9901C17.6417 26.7112 16.5826 26.9184 15.9915 27.1017V27.1017ZM16.4502 28.8522C16.2439 28.9159 16.0315 29.0036 15.9268 29.1683C15.8899 29.2294 15.8683 29.2984 15.8837 29.3675C15.9083 29.4684 16.0161 29.5401 16.1238 29.5853C16.3394 29.6756 16.5826 29.6995 16.8197 29.7022C17.3092 29.7075 17.7957 29.6278 18.279 29.5481C18.4237 29.5242 18.5715 29.5003 18.7008 29.4392C18.8301 29.3781 18.941 29.2745 18.9625 29.1497C18.9933 28.9823 18.8548 28.8203 18.6854 28.7406C18.1005 28.4644 17.0383 28.6716 16.4502 28.8522V28.8522Z" fill="#94D1E0"/>
<path d="M15.3973 22.3656C15.6775 22.3895 15.9731 22.3683 16.2101 22.2381C16.4472 22.108 16.5981 21.8424 16.5026 21.6139C16.4534 21.4944 16.3456 21.3988 16.2409 21.3084C16.01 21.1119 15.7791 20.9153 15.5513 20.7188C15.2957 20.4983 15.0402 20.2805 14.7631 20.0813C14.3351 19.7731 13.7594 19.4836 13.1959 19.7094C12.7156 19.9006 12.6017 20.2778 12.8142 20.6736C13.2668 21.505 14.3197 22.27 15.3973 22.3656V22.3656Z" fill="#FFFF8D"/>
</svg>
