<svg width="348" height="44" viewBox="0 0 348 44" fill="none" xmlns="http://www.w3.org/2000/svg">
<path d="M62 21L59.5682 26.5033L57.1255 32L50.5573 27.9589L44 23.9178L53 22.4556L62 21Z" stroke="#D96980" stroke-miterlimit="10"/>
<path d="M327 40C338.046 40 347 31.4934 347 21C347 10.5066 338.046 2 327 2C315.954 2 307 10.5066 307 21C307 31.4934 315.954 40 327 40Z" stroke="#C1C0FF" stroke-miterlimit="10" stroke-dasharray="4 4"/>
<path d="M11.5874 14.8826C15.4824 14.0139 17.3251 11.6183 15.7033 9.53195C14.0816 7.44558 9.60945 6.45847 5.71452 7.32719C1.81959 8.19591 -0.023198 10.5915 1.59856 12.6778C3.22033 14.7642 7.69251 15.7513 11.5874 14.8826Z" stroke="#D96980" stroke-miterlimit="10"/>
<path d="M174.5 10C178.09 10 181 8.433 181 6.5C181 4.567 178.09 3 174.5 3C170.91 3 168 4.567 168 6.5C168 8.433 170.91 10 174.5 10Z" stroke="#672ED6" stroke-miterlimit="10"/>
<path d="M287.537 7.53588C287.697 7.04354 288.302 7.04354 288.463 7.53588L289.498 10.8807C289.534 10.9897 289.598 11.0833 289.68 11.1492C289.763 11.2151 289.861 11.2503 289.961 11.25H292.504C292.974 11.25 293.179 11.9325 292.81 12.2667L291 14.1666C290.919 14.2393 290.86 14.3402 290.831 14.4546C290.802 14.569 290.805 14.6912 290.839 14.8036L291.5 18.072C291.661 18.597 291.14 19.048 290.746 18.7248L288.287 16.9048C288.203 16.8358 288.103 16.7987 288 16.7987C287.897 16.7987 287.797 16.8358 287.712 16.9048L285.254 18.7248C284.86 19.048 284.339 18.5965 284.5 18.072L285.161 14.8036C285.195 14.6912 285.198 14.569 285.169 14.4546C285.14 14.3402 285.081 14.2393 285 14.1666L283.19 12.2667C282.82 11.9325 283.026 11.25 283.495 11.25H286.038C286.139 11.2503 286.237 11.2153 286.319 11.1493C286.402 11.0834 286.465 10.9897 286.501 10.8807L287.536 7.53588H287.537Z" stroke="#111111" stroke-opacity="0.2" stroke-width="2" stroke-linecap="round" stroke-linejoin="round"/>
<path d="M276.652 7.21875L270.119 17.5172H273.356L280.641 7.21875H276.652Z" fill="#428BC1"/>
<path d="M273.356 7.21875L266.881 17.5172H270.119L276.652 7.21875H273.356Z" fill="#E8E8E8"/>
<path d="M270.119 7.21875L263.644 17.5172H266.881L273.356 7.21875H270.119Z" fill="#ED4C5C"/>
<path d="M268.5 43.7812C275.077 43.7812 280.409 38.161 280.409 31.2281C280.409 24.2952 275.077 18.6749 268.5 18.6749C261.923 18.6749 256.591 24.2952 256.591 31.2281C256.591 38.161 261.923 43.7812 268.5 43.7812Z" fill="#FFCE31"/>
<path d="M262.545 15.2015C262.256 15.2015 262.025 15.4453 262.025 15.75V20.8687C262.025 21.1734 262.256 21.4172 262.545 21.4172H274.455C274.744 21.4172 274.975 21.1734 274.975 20.8687V15.75C274.975 15.4453 274.744 15.2015 274.455 15.2015H262.545ZM273.934 19.2234C273.934 19.5281 273.703 19.7719 273.414 19.7719H263.644C263.355 19.7719 263.123 19.5281 263.123 19.2234V16.9078C263.123 16.6031 263.355 16.3594 263.644 16.3594H273.414C273.703 16.3594 273.934 16.6031 273.934 16.9078V19.2234Z" fill="#FFCE31"/>
<path opacity="0.5" d="M258.267 32.6906C258.267 25.8656 263.239 20.3203 269.598 19.8328C269.309 19.8328 268.962 19.7719 268.673 19.7719C262.603 19.7719 257.689 24.9515 257.689 31.4109C257.689 33.3 258.152 35.1281 258.903 36.7125C258.498 35.4328 258.267 34.0922 258.267 32.6906Z" fill="#89664C"/>
<path opacity="0.33" d="M273.067 40.9172C278.444 37.139 280.062 29.7656 276.941 24.0375L277.461 24.7687C280.814 30.0094 279.427 37.139 274.397 40.7344C272.894 41.8312 271.217 42.4406 269.541 42.6234C270.812 42.2578 271.969 41.7094 273.067 40.9172Z" fill="white"/>
<path d="M263.644 17.5172H266.881L260.348 7.21875H256.359L263.644 17.5172Z" fill="#ED4C5C"/>
<path d="M266.881 17.5172H270.119L263.644 7.21875H260.348L266.881 17.5172Z" fill="#E8E8E8"/>
<path opacity="0.5" d="M269.02 8.92505L267.402 11.4844L271.217 17.5172H273.356L273.934 16.6641L269.02 8.92505Z" fill="#3E4347"/>
<path d="M270.119 17.5172H273.356L266.881 7.21875H263.644L270.119 17.5172Z" fill="#428BC1"/>
<path opacity="0.5" d="M265.494 27.45V28.0593C266.072 28.0593 266.592 27.9374 267.112 27.6937V26.8406C266.65 27.2062 266.13 27.389 265.494 27.45ZM269.309 23.489H269.83V36.6515H269.309V23.489ZM271.506 37.2V38.9062H265.494V39.5156H272.027V37.2H271.506Z" fill="#89664C"/>
<path opacity="0.33" d="M269.83 36.6516H271.448V37.2H269.83V36.6516ZM267.691 23.4891H269.309V22.9407H267.112C267.112 24.2204 266.13 25.2563 264.916 25.2563V27.511C265.089 27.511 265.262 27.511 265.436 27.45V25.7438C266.708 25.8047 267.691 24.7688 267.691 23.4891ZM267.691 37.2V27.45C267.517 27.5719 267.344 27.6329 267.17 27.7547V36.6516H264.973V38.9063H265.494V37.2H267.691Z" fill="white"/>
<path d="M201 1.02384C201 1.02384 209.757 0.596343 212.046 3.36186C214.335 6.12737 215.253 8.80318 229 5.40434" stroke="#EEDA36" stroke-miterlimit="10"/>
<path d="M102 10H111.369" stroke="#672ED6" stroke-width="0.75" stroke-miterlimit="10" stroke-linecap="round" stroke-linejoin="round"/>
<path d="M107 6V16.0504" stroke="#672ED6" stroke-width="0.75" stroke-miterlimit="10" stroke-linecap="round" stroke-linejoin="round"/>
</svg>
