<svg width="365" height="45" viewBox="0 0 365 45" fill="none" xmlns="http://www.w3.org/2000/svg">
<path d="M129 26V30.7495" stroke="#672ED6" stroke-width="0.75" stroke-miterlimit="10" stroke-linecap="round" stroke-linejoin="round"/>
<path d="M323 18V26C323 26.7956 322.684 27.5587 322.122 28.1213C321.559 28.6839 320.796 29 320 29H317.83C317.595 29.6675 317.13 30.2301 316.52 30.5884C315.909 30.9466 315.191 31.0775 314.494 30.9578C313.796 30.8381 313.163 30.4756 312.707 29.9344C312.25 29.3931 312 28.708 312 28C312 27.292 312.25 26.6069 312.707 26.0656C313.163 25.5244 313.796 25.1619 314.494 25.0422C315.191 24.9225 315.909 25.0534 316.52 25.4116C317.13 25.7699 317.595 26.3325 317.83 27H320C320.266 27 320.52 26.8946 320.708 26.7071C320.895 26.5196 321 26.2652 321 26V18C321 17.2044 321.317 16.4413 321.879 15.8787C322.442 15.3161 323.205 15 324 15H327V12L332 16L327 20V17H324C323.735 17 323.481 17.1054 323.293 17.2929C323.106 17.4804 323 17.7348 323 18Z" fill="#111111"/>
<path d="M224 6.02384C224 6.02384 232.757 5.59634 235.046 8.36186C237.335 11.1274 238.253 13.8032 252 10.4043" stroke="#EEDA36" stroke-miterlimit="10"/>
<path d="M152 31H161.369" stroke="#672ED6" stroke-width="0.75" stroke-miterlimit="10" stroke-linecap="round" stroke-linejoin="round"/>
<path d="M36.5373 22.3692C36.6973 21.8769 37.3028 21.8769 37.4633 22.3692L38.4983 25.7141C38.5344 25.823 38.598 25.9167 38.6806 25.9826C38.7633 26.0485 38.8612 26.0836 38.9613 26.0833H41.5048C41.9748 26.0833 42.1798 26.7658 41.8103 27.1001L40.0003 29C39.9192 29.0727 39.86 29.1735 39.831 29.288C39.8021 29.4024 39.805 29.5246 39.8393 29.637L40.5003 32.9054C40.6613 33.4304 40.1403 33.8813 39.7463 33.5582L37.2878 31.7382C37.2036 31.6691 37.1032 31.6321 37.0003 31.6321C36.8974 31.6321 36.797 31.6691 36.7128 31.7382L34.2543 33.5582C33.8608 33.8813 33.3393 33.4298 33.5003 32.9054L34.1613 29.637C34.1956 29.5246 34.1985 29.4024 34.1695 29.288C34.1406 29.1735 34.0814 29.0727 34.0003 29L32.1903 27.1001C31.8203 26.7658 32.0263 26.0833 32.4953 26.0833H35.0388C35.1389 26.0837 35.2368 26.0486 35.3195 25.9827C35.4022 25.9168 35.4657 25.8231 35.5018 25.7141L36.5368 22.3692H36.5373Z" stroke="#111111" stroke-opacity="0.2" stroke-width="2" stroke-linecap="round" stroke-linejoin="round"/>
<defs>
<linearGradient id="paint0_linear_491_9" x1="-9.83937e-08" y1="16.7442" x2="365.001" y2="18.1775" gradientUnits="userSpaceOnUse">
<stop stop-color="#F97316"/>
<stop offset="0.0001" stop-color="#0471A6"/>
<stop offset="1" stop-color="#3B82F6"/>
</linearGradient>
</defs>
</svg>
