<svg width="110" height="27" viewBox="0 0 110 27" fill="none" xmlns="http://www.w3.org/2000/svg">
<path d="M81 1.02384C81 1.02384 89.7566 0.596343 92.0459 3.36186C94.3353 6.12737 95.2532 8.80318 109 5.40434" stroke="#EEDA36" stroke-miterlimit="10"/>
<path d="M5.68945 2.30078V7.05032" stroke="#672ED6" stroke-width="0.75" stroke-miterlimit="10" stroke-linecap="round" stroke-linejoin="round"/>
<path d="M1 4.67566H10.3691" stroke="#672ED6" stroke-width="0.75" stroke-miterlimit="10" stroke-linecap="round" stroke-linejoin="round"/>
<path d="M20.537 14.5359C20.697 14.0435 21.3025 14.0435 21.463 14.5359L22.498 17.8807C22.5341 17.9897 22.5977 18.0833 22.6804 18.1492C22.763 18.2151 22.8609 18.2503 22.961 18.25H25.5045C25.9745 18.25 26.1795 18.9325 25.81 19.2667L24 21.1666C23.9189 21.2393 23.8597 21.3402 23.8308 21.4546C23.8018 21.569 23.8047 21.6912 23.839 21.8036L24.5 25.072C24.661 25.597 24.14 26.048 23.746 25.7248L21.2875 23.9048C21.2033 23.8358 21.1029 23.7987 21 23.7987C20.8971 23.7987 20.7967 23.8358 20.7125 23.9048L18.254 25.7248C17.8605 26.048 17.339 25.5965 17.5 25.072L18.161 21.8036C18.1953 21.6912 18.1982 21.569 18.1693 21.4546C18.1403 21.3402 18.0811 21.2393 18 21.1666L16.19 19.2667C15.82 18.9325 16.026 18.25 16.495 18.25H19.0385C19.1387 18.2503 19.2365 18.2153 19.3192 18.1493C19.4019 18.0834 19.4655 17.9897 19.5015 17.8807L20.5365 14.5359H20.537Z" stroke="#111111" stroke-opacity="0.2" stroke-width="2" stroke-linecap="round" stroke-linejoin="round"/>
</svg>
