<svg width="341" height="44" viewBox="0 0 341 44" fill="none" xmlns="http://www.w3.org/2000/svg">
<path d="M187 30.0278C187 30.0278 195.757 29.5291 198.046 32.7555C200.335 35.9819 201.253 39.1037 215 35.1384" stroke="#EEDA36" stroke-miterlimit="10"/>
<path d="M62 21L59.5682 25.5027L57.1255 30L50.5573 26.6937L44 23.3873L53 22.1909L62 21Z" stroke="#D96980" stroke-miterlimit="10"/>
<path d="M274 43C285.046 43 294 33.598 294 22C294 10.402 285.046 1 274 1C262.954 1 254 10.402 254 22C254 33.598 262.954 43 274 43Z" stroke="#C1C0FF" stroke-miterlimit="10" stroke-dasharray="4 4"/>
<path d="M111.689 31.975V36.9992" stroke="#672ED6" stroke-width="0.75" stroke-miterlimit="10" stroke-linecap="round" stroke-linejoin="round"/>
<path d="M107 34.4872H116.369" stroke="#672ED6" stroke-width="0.75" stroke-miterlimit="10" stroke-linecap="round" stroke-linejoin="round"/>
<path d="M11.5874 14.3492C15.4824 13.4804 17.3251 11.0849 15.7033 8.9985C14.0816 6.91213 9.60945 5.92502 5.71452 6.79374C1.81959 7.66246 -0.023198 10.058 1.59856 12.1444C3.22033 14.2308 7.69251 15.2179 11.5874 14.3492Z" stroke="#D96980" stroke-miterlimit="10"/>
<path d="M174.5 10C178.09 10 181 8.20914 181 6C181 3.79086 178.09 2 174.5 2C170.91 2 168 3.79086 168 6C168 8.20914 170.91 10 174.5 10Z" stroke="#672ED6" stroke-miterlimit="10"/>
<path d="M330 14.4583C328.674 14.4583 327.402 15.0948 326.464 16.2278C325.527 17.3608 325 18.8976 325 20.4999C325 22.1023 325.527 23.639 326.464 24.772C327.402 25.9051 328.674 26.5416 330 26.5416C331.326 26.5416 332.598 25.9051 333.536 24.772C334.473 23.639 335 22.1023 335 20.4999C335 18.8976 334.473 17.3608 333.536 16.2278C332.598 15.0948 331.326 14.4583 330 14.4583Z" fill="#EEDA36" fill-opacity="0.5"/>
<path fill-rule="evenodd" clip-rule="evenodd" d="M330 7.20825C330.265 7.20825 330.52 7.33556 330.707 7.56216C330.895 7.78877 331 8.09612 331 8.41659V9.62492C331 9.94539 330.895 10.2527 330.707 10.4793C330.52 10.7059 330.265 10.8333 330 10.8333C329.735 10.8333 329.48 10.7059 329.293 10.4793C329.105 10.2527 329 9.94539 329 9.62492V8.41659C329 8.09612 329.105 7.78877 329.293 7.56216C329.48 7.33556 329.735 7.20825 330 7.20825ZM321.293 9.97896C321.481 9.75243 321.735 9.62518 322 9.62518C322.265 9.62518 322.519 9.75243 322.707 9.97896L324.207 11.7915C324.389 12.0194 324.49 12.3246 324.488 12.6414C324.485 12.9582 324.38 13.2613 324.195 13.4853C324.009 13.7094 323.759 13.8364 323.496 13.8392C323.234 13.8419 322.982 13.7202 322.793 13.5L321.293 11.6875C321.106 11.4609 321 11.1537 321 10.8333C321 10.5128 321.106 10.2056 321.293 9.97896ZM338.707 9.97896C338.894 10.2056 339 10.5128 339 10.8333C339 11.1537 338.894 11.4609 338.707 11.6875L337.207 13.5C337.115 13.6155 337.004 13.7075 336.882 13.7708C336.76 13.8342 336.629 13.8675 336.496 13.8689C336.364 13.8703 336.232 13.8397 336.109 13.779C335.986 13.7182 335.874 13.6285 335.781 13.515C335.687 13.4016 335.612 13.2667 335.562 13.1182C335.512 12.9697 335.487 12.8105 335.488 12.6501C335.489 12.4897 335.516 12.3311 335.569 12.1837C335.621 12.0363 335.697 11.9029 335.793 11.7915L337.293 9.97896C337.481 9.75243 337.735 9.62518 338 9.62518C338.265 9.62518 338.519 9.75243 338.707 9.97896ZM319 20.4999C319 20.1794 319.105 19.8721 319.293 19.6455C319.48 19.4189 319.735 19.2916 320 19.2916H321C321.265 19.2916 321.52 19.4189 321.707 19.6455C321.895 19.8721 322 20.1794 322 20.4999C322 20.8204 321.895 21.1277 321.707 21.3543C321.52 21.5809 321.265 21.7083 321 21.7083H320C319.735 21.7083 319.48 21.5809 319.293 21.3543C319.105 21.1277 319 20.8204 319 20.4999ZM338 20.4999C338 20.1794 338.105 19.8721 338.293 19.6455C338.48 19.4189 338.735 19.2916 339 19.2916H340C340.265 19.2916 340.52 19.4189 340.707 19.6455C340.895 19.8721 341 20.1794 341 20.4999C341 20.8204 340.895 21.1277 340.707 21.3543C340.52 21.5809 340.265 21.7083 340 21.7083H339C338.735 21.7083 338.48 21.5809 338.293 21.3543C338.105 21.1277 338 20.8204 338 20.4999ZM324.207 27.4998C324.394 27.7264 324.5 28.0337 324.5 28.3541C324.5 28.6745 324.394 28.9818 324.207 29.2084L322.707 31.0209C322.518 31.241 322.266 31.3628 322.004 31.36C321.741 31.3573 321.491 31.2302 321.305 31.0062C321.12 30.7821 321.015 30.4791 321.012 30.1622C321.01 29.8454 321.111 29.5402 321.293 29.3123L322.793 27.4998C322.981 27.2733 323.235 27.146 323.5 27.146C323.765 27.146 324.019 27.2733 324.207 27.4998ZM335.793 27.4998C335.981 27.2733 336.235 27.146 336.5 27.146C336.765 27.146 337.019 27.2733 337.207 27.4998L338.707 29.3123C338.889 29.5402 338.99 29.8454 338.988 30.1622C338.985 30.4791 338.88 30.7821 338.695 31.0062C338.509 31.2302 338.259 31.3573 337.996 31.36C337.734 31.3628 337.482 31.241 337.293 31.0209L335.793 29.2084C335.606 28.9818 335.5 28.6745 335.5 28.3541C335.5 28.0337 335.606 27.7264 335.793 27.4998ZM330 30.1666C330.265 30.1666 330.52 30.2939 330.707 30.5205C330.895 30.7471 331 31.0544 331 31.3749V32.5833C331 32.9037 330.895 33.2111 330.707 33.4377C330.52 33.6643 330.265 33.7916 330 33.7916C329.735 33.7916 329.48 33.6643 329.293 33.4377C329.105 33.2111 329 32.9037 329 32.5833V31.3749C329 31.0544 329.105 30.7471 329.293 30.5205C329.48 30.2939 329.735 30.1666 330 30.1666Z" fill="#EEDA36" fill-opacity="0.5"/>
<path d="M313.537 29.6456C313.697 29.1181 314.302 29.1181 314.463 29.6456L315.498 33.2294C315.534 33.3461 315.598 33.4464 315.68 33.5171C315.763 33.5877 315.861 33.6253 315.961 33.625H318.504C318.974 33.625 319.179 34.3563 318.81 34.7144L317 36.75C316.919 36.8279 316.86 36.9359 316.831 37.0585C316.802 37.1812 316.805 37.3121 316.839 37.4325L317.5 40.9344C317.661 41.4969 317.14 41.98 316.746 41.6337L314.287 39.6838C314.203 39.6098 314.103 39.5701 314 39.5701C313.897 39.5701 313.797 39.6098 313.712 39.6838L311.254 41.6337C310.86 41.98 310.339 41.4962 310.5 40.9344L311.161 37.4325C311.195 37.3121 311.198 37.1812 311.169 37.0585C311.14 36.9359 311.081 36.8279 311 36.75L309.19 34.7144C308.82 34.3563 309.026 33.625 309.495 33.625H312.038C312.139 33.6254 312.237 33.5878 312.319 33.5172C312.402 33.4465 312.465 33.3462 312.501 33.2294L313.536 29.6456H313.537Z" stroke="#111111" stroke-opacity="0.2" stroke-width="2" stroke-linecap="round" stroke-linejoin="round"/>
<path d="M264.836 20.7285C264.854 20.6716 264.818 19.6741 265.314 18.8888C265.811 18.1035 266.461 17.9876 266.941 17.8913C267.523 17.7754 268.928 17.5851 269.15 18.121C269.373 18.6569 269.201 18.9457 269.561 19.0988C269.92 19.2519 269.27 20.1532 269.27 20.1532L264.836 20.7285ZM282.072 20.7088C282.072 20.7088 282.213 19.7397 281.719 19.0857C280.977 18.0991 279.814 17.7797 278.715 17.7797C278.361 17.7797 277.937 17.8563 277.801 18.3288C277.723 18.6022 277.668 18.9347 277.496 18.9719C277.326 19.0113 280.959 20.2691 282.072 20.7088Z" fill="#464C4F"/>
<path d="M268.625 30.7821C268.041 31.2896 267.266 34.7896 266.053 35.715C264.84 36.6403 262.092 36.1459 261.885 34.2581C261.703 32.5934 262.033 29.0934 262.861 25.5168C263.689 21.9403 264.326 20.1684 266.262 19.5887C267.814 19.1228 270.857 18.7946 273.813 18.8275C276.77 18.8603 279.357 18.8603 280.984 19.5559C282.443 20.1793 283.438 21.8746 284.119 25.1843C284.799 28.4962 285.324 32.4775 285.242 33.7943C285.123 35.715 282.699 36.94 280.896 35.4503C279.461 34.2646 279.182 31.2459 278.443 30.815C277.705 30.384 269.156 30.3184 268.625 30.7821Z" fill="#5E6268"/>
<path d="M279.213 29.8809C279.072 30.0778 279.396 30.3709 279.627 31.0118C279.857 31.6528 280.451 33.7746 281.027 34.3675C281.746 35.1046 282.307 34.9668 282.416 34.735C282.525 34.5031 281.904 33.9037 281.174 32.5671C280.443 31.2306 279.506 29.4718 279.213 29.8809ZM263.055 29.3362C262.838 29.38 262.264 32.6087 262.689 33.9737C263.045 35.1112 264.406 35.1746 264.918 35.0106C265.938 34.6846 266.258 33.5778 266.025 33.4553C265.795 33.3328 264.986 34.199 264.223 33.7965C263.371 33.3459 263.383 32.0771 263.273 30.7953C263.176 29.6403 263.262 29.2946 263.055 29.3362ZM268.424 22.1765C268.344 22.1765 267.641 22.1721 267.641 22.1721L267.645 21.2206C267.645 21.2206 267.66 20.4528 266.926 20.4703C266.268 20.4856 266.281 21.1003 266.281 21.2206C266.281 21.3409 266.277 22.1656 266.277 22.1656C266.277 22.1656 265.531 22.1568 265.393 22.1612C265.254 22.1656 264.734 22.1743 264.734 22.9246C264.734 23.6334 265.271 23.6837 265.393 23.6881C265.514 23.6925 266.273 23.6925 266.273 23.6925C266.273 23.6925 266.268 24.4865 266.27 24.6156C266.271 24.7446 266.293 25.3528 266.951 25.3528C267.67 25.3528 267.633 24.6156 267.633 24.6156L267.637 23.699C267.637 23.699 268.309 23.7056 268.426 23.7034C268.594 23.699 269.088 23.6487 269.096 22.8984C269.102 22.1568 268.506 22.1765 268.424 22.1765Z" fill="#9E9E9E"/>
<path d="M270.453 28.5225C271.374 28.5225 272.121 27.6861 272.121 26.6544C272.121 25.6226 271.374 24.7863 270.453 24.7863C269.532 24.7863 268.785 25.6226 268.785 26.6544C268.785 27.6861 269.532 28.5225 270.453 28.5225Z" fill="#AFAFAF"/>
<path d="M276.186 28.5509C277.107 28.5509 277.854 27.7146 277.854 26.6828C277.854 25.6511 277.107 24.8147 276.186 24.8147C275.264 24.8147 274.518 25.6511 274.518 26.6828C274.518 27.7146 275.264 28.5509 276.186 28.5509Z" fill="#AFAFAF"/>
<path d="M270.451 27.8575C271.067 27.8575 271.566 27.2983 271.566 26.6084C271.566 25.9186 271.067 25.3594 270.451 25.3594C269.835 25.3594 269.336 25.9186 269.336 26.6084C269.336 27.2983 269.835 27.8575 270.451 27.8575Z" fill="#C8C8C8"/>
<path d="M276.186 27.899C276.801 27.899 277.301 27.3398 277.301 26.6499C277.301 25.9601 276.801 25.4009 276.186 25.4009C275.57 25.4009 275.07 25.9601 275.07 26.6499C275.07 27.3398 275.57 27.899 276.186 27.899Z" fill="#C8C8C8"/>
<path d="M277.762 23.9966C278.258 23.9966 278.66 23.5461 278.66 22.9904C278.66 22.4346 278.258 21.9841 277.762 21.9841C277.266 21.9841 276.863 22.4346 276.863 22.9904C276.863 23.5461 277.266 23.9966 277.762 23.9966Z" fill="#2086FA"/>
<path d="M279.543 25.9238C280.039 25.9238 280.441 25.4732 280.441 24.9175C280.441 24.3618 280.039 23.9113 279.543 23.9113C279.047 23.9113 278.645 24.3618 278.645 24.9175C278.645 25.4732 279.047 25.9238 279.543 25.9238Z" fill="#06AC48"/>
<path d="M281.336 24.1563C281.832 24.1563 282.234 23.7058 282.234 23.15C282.234 22.5943 281.832 22.1438 281.336 22.1438C280.84 22.1438 280.438 22.5943 280.438 23.15C280.438 23.7058 280.84 24.1563 281.336 24.1563Z" fill="#F72E26"/>
<path d="M279.559 22.1021C280.055 22.1021 280.457 21.6516 280.457 21.0958C280.457 20.5401 280.055 20.0896 279.559 20.0896C279.062 20.0896 278.66 20.5401 278.66 21.0958C278.66 21.6516 279.062 22.1021 279.559 22.1021Z" fill="#FDB700"/>
<path d="M31.8353 30.9745C31.8006 30.9422 31.0695 30.7317 30.681 30.0216C30.2926 29.3116 30.4414 28.6069 30.5438 28.0838C30.6682 27.4502 31.0328 25.9436 31.4985 25.845C31.9641 25.7463 32.1107 25.9964 32.3494 25.6609C32.5881 25.3253 33.0049 26.2244 33.0049 26.2244L31.8353 30.9745ZM37.9795 13.0567C37.9795 13.0567 37.3316 12.6706 36.6839 13.0221C35.708 13.5491 35.0628 14.6778 34.6699 15.8205C34.5436 16.1879 34.4473 16.6473 34.7388 16.9065C34.9079 17.0554 35.1279 17.1945 35.0933 17.3824C35.0609 17.5687 37.265 14.1048 37.9795 13.0567Z" fill="#464C4F"/>
<path d="M40.4315 29.5265C40.5885 30.2591 42.8327 31.9318 43.066 33.4214C43.2992 34.9111 41.9612 37.6446 40.5273 37.3922C39.2632 37.1687 36.8599 35.9589 34.5793 34.2125C32.2987 32.4661 31.2498 31.3656 31.5237 29.2105C31.7429 27.4814 32.5937 24.2377 33.6732 21.1747C34.7533 18.1097 35.6779 15.4203 36.7603 13.9017C37.7307 12.5399 39.3071 11.9265 41.9349 12.0378C44.5635 12.1516 47.6192 12.5916 48.5385 13.003C49.8795 13.6025 49.896 16.4248 48.1788 17.9294C46.8118 19.1277 44.5374 18.6703 43.9631 19.3309C43.3889 19.9914 40.2873 28.8596 40.4315 29.5265Z" fill="#5E6268"/>
<path d="M43.5652 18.2998C43.6568 18.4947 43.9838 18.2304 44.5279 18.1496C45.0719 18.0688 46.8126 17.9772 47.4455 17.5253C48.2333 16.9609 48.3343 16.3442 48.2064 16.1731C48.0784 16.002 47.4247 16.499 46.2009 16.9272C44.9771 17.3553 43.3752 17.894 43.5652 18.2998ZM37.3997 34.9574C37.3538 35.1936 39.4745 36.59 40.61 36.4855C41.5564 36.3978 42.0885 34.9987 42.1531 34.4263C42.2826 33.286 41.5997 32.679 41.4284 32.8902C41.2578 33.0994 41.5929 34.1543 41.0301 34.8482C40.4012 35.6216 39.4915 35.2952 38.529 35.0914C37.662 34.9069 37.4438 34.732 37.3997 34.9574ZM34.1604 27.6044C34.1318 27.6876 33.8775 28.4172 33.8775 28.4172L33.1934 28.1775C33.1934 28.1775 32.6458 27.9711 32.3961 28.7387C32.1719 29.4265 32.6196 29.5645 32.7063 29.5943C32.793 29.6241 33.3856 29.8324 33.3856 29.8324C33.3856 29.8324 33.1128 30.6056 33.0664 30.7508C33.02 30.896 32.8407 31.4381 33.3812 31.6239C33.8917 31.7995 34.1199 31.2537 34.1663 31.129C34.2127 31.0042 34.4842 30.2146 34.4842 30.2146C34.4842 30.2146 35.0541 30.4174 35.1478 30.4473C35.2414 30.4772 35.6872 30.6055 35.9223 29.9215C36.1791 29.1745 35.6348 29.0305 35.6348 29.0305L34.976 28.7994C34.976 28.7994 35.2208 28.1028 35.261 27.9805C35.3179 27.8048 35.4582 27.2788 34.9205 27.0849C34.3884 26.8952 34.1897 27.5191 34.1604 27.6044Z" fill="#9E9E9E"/>
<path d="M39.4569 27.0671C39.786 26.1097 39.4503 25.1265 38.7071 24.871C37.9639 24.6155 37.0945 25.1844 36.7654 26.1418C36.4363 27.0992 36.772 28.0824 37.5152 28.3379C38.2584 28.5934 39.1278 28.0245 39.4569 27.0671Z" fill="#AFAFAF" fill-opacity="0.8"/>
<path d="M41.5255 21.1167C41.8546 20.1593 41.5189 19.1761 40.7757 18.9206C40.0325 18.665 39.1631 19.234 38.834 20.1914C38.5049 21.1487 38.8406 22.1319 39.5838 22.3875C40.327 22.643 41.1964 22.074 41.5255 21.1167Z" fill="#AFAFAF" fill-opacity="0.8"/>
<path d="M38.9771 26.9044C39.1972 26.2643 38.9728 25.6069 38.4758 25.436C37.9789 25.2652 37.3976 25.6456 37.1776 26.2857C36.9575 26.9258 37.182 27.5832 37.6789 27.754C38.1758 27.9249 38.7571 27.5445 38.9771 26.9044Z" fill="#C8C8C8" fill-opacity="0.8"/>
<path d="M41.0559 20.9551C41.2759 20.315 41.0515 19.6576 40.5546 19.4868C40.0576 19.3159 39.4764 19.6964 39.2563 20.3365C39.0362 20.9766 39.2607 21.634 39.7576 21.8048C40.2546 21.9757 40.8358 21.5953 41.0559 20.9551Z" fill="#C8C8C8" fill-opacity="0.8"/>
<path d="M38.8078 18.3506C38.9851 17.8349 38.8043 17.3053 38.4039 17.1677C38.0036 17.03 37.5353 17.3365 37.358 17.8522C37.1808 18.3679 37.3616 18.8975 37.7619 19.0351C38.1623 19.1727 38.6305 18.8663 38.8078 18.3506Z" fill="#2086FA"/>
<path d="M40.8325 16.9768C41.0098 16.4611 40.829 15.9315 40.4286 15.7939C40.0283 15.6563 39.5601 15.9627 39.3828 16.4784C39.2055 16.9941 39.3863 17.5237 39.7866 17.6613C40.187 17.7989 40.6552 17.4925 40.8325 16.9768Z" fill="#06AC48" fill-opacity="0.8"/>
<path d="M40.1999 14.6757C40.3771 14.16 40.1963 13.6304 39.796 13.4928C39.3956 13.3551 38.9274 13.6616 38.7501 14.1773C38.5728 14.6929 38.7536 15.2225 39.154 15.3602C39.5543 15.4978 40.0226 15.1913 40.1999 14.6757Z" fill="#F72E26"/>
<path d="M38.0851 16.0142C38.2624 15.4985 38.0816 14.9689 37.6813 14.8313C37.2809 14.6936 36.8127 15.0001 36.6354 15.5158C36.4581 16.0314 36.6389 16.561 37.0393 16.6987C37.4396 16.8363 37.9079 16.5298 38.0851 16.0142Z" fill="#FDB700"/>
</svg>
