<svg width="100" height="100" viewBox="0 0 100 100" fill="none" xmlns="http://www.w3.org/2000/svg">
<path fill-rule="evenodd" clip-rule="evenodd" d="M12.5 0H75L100 20V90C100 92.6522 98.683 95.1957 96.3388 97.0711C93.9946 98.9464 90.8152 100 87.5 100H12.5C9.18479 100 6.00537 98.9464 3.66116 97.0711C1.31696 95.1957 0 92.6522 0 90V10C0 7.34784 1.31696 4.8043 3.66116 2.92893C6.00537 1.05357 9.18479 0 12.5 0ZM69.825 10H12.5V90H87.5V24.14H69.825V10ZM68.75 60.425V45H43.75V72.5C43.749 74.0919 43.1148 75.6423 41.9393 76.9267C40.7638 78.2111 39.1079 79.163 37.2112 79.6446C35.3146 80.1262 33.2756 80.1125 31.3893 79.6056C29.5031 79.0986 27.8674 78.1246 26.7189 76.8246C25.5705 75.5246 24.9689 73.9659 25.0012 72.3742C25.0336 70.7825 25.6981 69.2404 26.8987 67.9709C28.0993 66.7014 29.7737 65.7704 31.6796 65.3127C33.5855 64.855 35.6239 64.8944 37.5 65.425V40C37.5 38.6739 38.1585 37.4021 39.3306 36.4645C40.5027 35.5268 42.0924 35 43.75 35H68.75C70.4076 35 71.9973 35.5268 73.1694 36.4645C74.3415 37.4021 75 38.6739 75 40V67.5C74.999 69.0919 74.3648 70.6423 73.1893 71.9267C72.0137 73.2111 70.3579 74.163 68.4612 74.6446C66.5646 75.1262 64.5256 75.1125 62.6393 74.6056C60.7531 74.0986 59.1174 73.1246 57.9689 71.8246C56.8205 70.5246 56.2189 68.9659 56.2512 67.3742C56.2836 65.7825 56.9481 64.2404 58.1487 62.9709C59.3493 61.7014 61.0237 60.7704 62.9296 60.3127C64.8355 59.855 66.8739 59.8944 68.75 60.425Z" fill="#193059"/>
</svg>
