<svg width="18" height="20" viewBox="0 0 18 20" fill="none" xmlns="http://www.w3.org/2000/svg">
<path d="M16.1815 8.40175H3.38733L7.30325 2.29775C7.48636 2.01185 7.57445 1.64326 7.54815 1.27306C7.52185 0.902863 7.38332 0.561387 7.16301 0.323753C6.94271 0.0861191 6.65869 -0.0282075 6.37344 0.0059241C6.08818 0.0400557 5.82506 0.21985 5.64195 0.505753L0.248116 8.90575C0.211827 8.97257 0.179377 9.04276 0.151027 9.11575C0.151027 9.18575 0.151028 9.22775 0.0755139 9.29775C0.0266171 9.45828 0.00101525 9.62915 0 9.80175C0.00101525 9.97436 0.0266171 10.1452 0.0755139 10.3058C0.0755139 10.3758 0.0755135 10.4178 0.151027 10.4878C0.179377 10.5607 0.211827 10.6309 0.248116 10.6978L5.64195 19.0978C5.74338 19.2558 5.87039 19.3829 6.01396 19.47C6.15753 19.5571 6.31412 19.6021 6.4726 19.6018C6.72466 19.6024 6.96893 19.4885 7.16301 19.2798C7.27225 19.1622 7.36254 19.0179 7.42873 18.855C7.49491 18.6921 7.53568 18.5139 7.54871 18.3305C7.56174 18.1471 7.54676 17.9622 7.50464 17.7864C7.46252 17.6106 7.39409 17.4472 7.30325 17.3058L3.38733 11.2018H16.1815C16.4676 11.2018 16.742 11.0543 16.9443 10.7917C17.1466 10.5292 17.2603 10.1731 17.2603 9.80175C17.2603 9.43045 17.1466 9.07435 16.9443 8.8118C16.742 8.54925 16.4676 8.40175 16.1815 8.40175Z" fill="#193059"/>
</svg>
