<svg width="35" height="30" viewBox="0 0 35 30" fill="none" xmlns="http://www.w3.org/2000/svg">
<path d="M9.48552 2.4695C8.54802 2.4695 7.64892 2.78912 6.98601 3.35804C6.3231 3.92697 5.95068 4.6986 5.95068 5.50318V23.7053C5.95068 24.5099 6.3231 25.2815 6.98601 25.8504C7.64892 26.4193 8.54802 26.739 9.48552 26.739H28.2201C28.5014 26.739 28.7711 26.6431 28.97 26.4724C29.1689 26.3017 29.2806 26.0702 29.2806 25.8289C29.2806 25.5875 29.1689 25.356 28.97 25.1853C28.7711 25.0146 28.5014 24.9187 28.2201 24.9187H9.48552C9.11052 24.9187 8.75088 24.7909 8.48572 24.5633C8.22055 24.3358 8.07158 24.0271 8.07158 23.7053H28.2201C28.5014 23.7053 28.7711 23.6094 28.97 23.4387C29.1689 23.268 29.2806 23.0365 29.2806 22.7952V5.50318C29.2806 5.10479 29.1892 4.71031 29.0115 4.34224C28.8339 3.97418 28.5735 3.63975 28.2453 3.35804C27.917 3.07634 27.5274 2.85288 27.0985 2.70042C26.6696 2.54797 26.21 2.4695 25.7458 2.4695H9.48552ZM11.6064 6.10992H22.9179C23.2929 6.10992 23.6525 6.23777 23.9177 6.46534C24.1829 6.69291 24.3318 7.00156 24.3318 7.32339V8.53686C24.3318 8.8587 24.1829 9.16735 23.9177 9.39492C23.6525 9.62249 23.2929 9.75034 22.9179 9.75034H11.6064C11.2314 9.75034 10.8718 9.62249 10.6066 9.39492C10.3415 9.16735 10.1925 8.8587 10.1925 8.53686V7.32339C10.1925 7.00156 10.3415 6.69291 10.6066 6.46534C10.8718 6.23777 11.2314 6.10992 11.6064 6.10992Z" fill="#193059"/>
</svg>
