<svg width="41" height="44" viewBox="0 0 41 44" fill="none" xmlns="http://www.w3.org/2000/svg">
<path d="M14.9376 0.665641L12.5813 0.234391C11.4068 0.0318121 10.2002 0.128948 9.07326 0.516798C7.94631 0.904648 6.93548 1.57067 6.13443 2.45314C2.19693 6.74064 0.237559 13.4375 0.250059 22.5438C0.262559 31.6375 2.23756 38.1313 6.17193 42.025C7.83756 43.675 10.3094 44.275 12.6563 43.6031L15.0126 42.9281C17.2126 42.2969 18.6844 40.1688 18.4501 37.9469L17.9844 33.4969C17.8928 32.5724 17.4985 31.704 16.8628 31.0265C16.2271 30.349 15.3856 29.9003 14.4688 29.75L9.45631 28.8938C8.44958 26.7425 7.90049 24.4057 7.84381 22.0313C7.76881 19.5719 8.16568 17.3188 9.03756 15.275L14.3938 13.8938C15.3344 13.6511 16.1789 13.128 16.8152 12.3941C17.4515 11.6601 17.8495 10.7499 17.9563 9.78439L18.4063 5.30939C18.5277 4.23927 18.2365 3.16313 17.5919 2.30029C16.9474 1.43746 15.9981 0.852857 14.9376 0.665641ZM31.0438 9.95627C30.7504 9.66287 30.3525 9.49804 29.9376 9.49804C29.5226 9.49804 29.1247 9.66287 28.8313 9.95627C28.5379 10.2497 28.3731 10.6476 28.3731 11.0625C28.3731 11.4774 28.5379 11.8754 28.8313 12.1688L35.5407 18.875H20.5626C20.1482 18.875 19.7507 19.0396 19.4577 19.3327C19.1647 19.6257 19.0001 20.0231 19.0001 20.4375C19.0001 20.8519 19.1647 21.2493 19.4577 21.5424C19.7507 21.8354 20.1482 22 20.5626 22H35.5407L28.8313 28.7063C28.5379 28.9997 28.3731 29.3976 28.3731 29.8125C28.3731 30.2274 28.5379 30.6254 28.8313 30.9188C29.1247 31.2122 29.5226 31.377 29.9376 31.377C30.3525 31.377 30.7504 31.2122 31.0438 30.9188L40.4188 21.5438C40.5643 21.3986 40.6798 21.2262 40.7585 21.0364C40.8373 20.8465 40.8779 20.643 40.8779 20.4375C40.8779 20.232 40.8373 20.0285 40.7585 19.8387C40.6798 19.6488 40.5643 19.4764 40.4188 19.3313L31.0438 9.95627Z" fill="white"/>
</svg>
