<svg width="22" height="22" viewBox="0 0 22 22" fill="none" xmlns="http://www.w3.org/2000/svg">
<path d="M3.68652 5.90985H18.3124C18.6088 5.90986 18.9019 5.97125 19.1728 6.09005C19.4436 6.20885 19.6863 6.38242 19.8852 6.59959C20.084 6.81676 20.2346 7.0727 20.3273 7.35092C20.4199 7.62913 20.4526 7.92344 20.4231 8.21488L19.7867 14.5042C19.7344 15.0215 19.4894 15.5011 19.0994 15.85C18.7094 16.1988 18.2021 16.392 17.6761 16.392H7.54717C7.05661 16.3922 6.58114 16.2244 6.20172 15.917C5.8223 15.6097 5.56239 15.1819 5.46624 14.7065L3.68652 5.90985Z" stroke="#193059" stroke-width="2" stroke-linejoin="round"/>
<path d="M16.4151 20.5849H18.5363M4.74826 5.90985L3.88916 2.51048C3.8317 2.28381 3.69926 2.08261 3.51286 1.93884C3.32646 1.79507 3.0968 1.71699 2.86036 1.71698H1.56641L4.74826 5.90985ZM7.93011 20.5849H10.0514H7.93011Z" stroke="#193059" stroke-width="2" stroke-linecap="round" stroke-linejoin="round"/>
</svg>
