<svg width="38" height="38" viewBox="0 0 38 38" fill="none" xmlns="http://www.w3.org/2000/svg">
<path d="M19 3.16663C15.8684 3.16663 12.8072 4.09523 10.2034 5.83502C7.59966 7.57481 5.57026 10.0476 4.37187 12.9408C3.17349 15.834 2.85993 19.0175 3.47087 22.0889C4.0818 25.1603 5.58978 27.9815 7.80411 30.1958C10.0184 32.4101 12.8397 33.9181 15.911 34.5291C18.9824 35.14 22.166 34.8264 25.0591 33.6281C27.9523 32.4297 30.4251 30.4003 32.1649 27.7965C33.9047 25.1927 34.8333 22.1315 34.8333 19C34.8333 16.9207 34.4238 14.8618 33.6281 12.9408C32.8324 11.0198 31.6661 9.27436 30.1958 7.8041C28.7256 6.33384 26.9801 5.16757 25.0591 4.37187C23.1381 3.57617 21.0792 3.16663 19 3.16663ZM23.2908 21.0425C23.4392 21.1897 23.557 21.3648 23.6374 21.5577C23.7178 21.7507 23.7591 21.9576 23.7591 22.1666C23.7591 22.3756 23.7178 22.5826 23.6374 22.7755C23.557 22.9685 23.4392 23.1436 23.2908 23.2908C23.1436 23.4392 22.9685 23.557 22.7755 23.6374C22.5826 23.7178 22.3757 23.7591 22.1666 23.7591C21.9576 23.7591 21.7507 23.7178 21.5577 23.6374C21.3648 23.557 21.1897 23.4392 21.0425 23.2908L19 21.2325L16.9575 23.2908C16.8103 23.4392 16.6352 23.557 16.4422 23.6374C16.2493 23.7178 16.0423 23.7591 15.8333 23.7591C15.6243 23.7591 15.4173 23.7178 15.2244 23.6374C15.0314 23.557 14.8563 23.4392 14.7091 23.2908C14.5607 23.1436 14.4429 22.9685 14.3626 22.7755C14.2822 22.5826 14.2408 22.3756 14.2408 22.1666C14.2408 21.9576 14.2822 21.7507 14.3626 21.5577C14.4429 21.3648 14.5607 21.1897 14.7091 21.0425L16.7675 19L14.7091 16.9575C14.411 16.6593 14.2435 16.2549 14.2435 15.8333C14.2435 15.4116 14.411 15.0073 14.7091 14.7091C15.0073 14.411 15.4117 14.2435 15.8333 14.2435C16.2549 14.2435 16.6593 14.411 16.9575 14.7091L19 16.7675L21.0425 14.7091C21.3406 14.411 21.745 14.2435 22.1666 14.2435C22.5883 14.2435 22.9927 14.411 23.2908 14.7091C23.5889 15.0073 23.7564 15.4116 23.7564 15.8333C23.7564 16.2549 23.5889 16.6593 23.2908 16.9575L21.2325 19L23.2908 21.0425Z" fill="#193059"/>
</svg>
