<svg width="16" height="14" viewBox="0 0 16 14" fill="none" xmlns="http://www.w3.org/2000/svg">
<path d="M1.33337 4.33333L2.20271 5.02867C2.50556 5.2709 2.85761 5.44416 3.2343 5.53637C3.611 5.62858 4.00327 5.63752 4.38377 5.56256C4.76427 5.4876 5.12384 5.33055 5.43742 5.10236C5.75099 4.87417 6.01102 4.58033 6.19937 4.24133L8.00004 1L9.80071 4.24133C9.98912 4.58028 10.2492 4.87406 10.5628 5.10218C10.8764 5.33031 11.236 5.48729 11.6165 5.56218C11.997 5.63707 12.3892 5.62808 12.7659 5.53582C13.1426 5.44356 13.4946 5.27026 13.7974 5.028L14.6667 4.33333L13.4974 10.18C13.4463 10.4352 13.3377 10.6753 13.1798 10.8821C13.0218 11.0889 12.8188 11.2569 12.586 11.3733V11.3733C11.1621 12.0853 9.59203 12.456 8.00004 12.456C6.40805 12.456 4.83794 12.0853 3.41404 11.3733V11.3733C3.18133 11.2569 2.97826 11.0889 2.82033 10.8821C2.66239 10.6753 2.55376 10.4352 2.50271 10.18L1.33337 4.33333Z" stroke="#FFC727" stroke-width="2" stroke-linecap="round" stroke-linejoin="round"/>
<path d="M5.33337 9C7.06404 9.88867 8.93604 9.88867 10.6667 9" stroke="#FFC727" stroke-width="2" stroke-linecap="round" stroke-linejoin="round"/>
</svg>
