<svg width="100" height="100" viewBox="0 0 100 100" fill="none" xmlns="http://www.w3.org/2000/svg">
<path d="M15.1515 0C11.1331 0 7.27924 1.31696 4.43778 3.66117C1.59632 6.00537 0 9.18479 0 12.5V87.5C0 90.8152 1.59632 93.9946 4.43778 96.3388C7.27924 98.683 11.1331 100 15.1515 100H95.4545C96.6601 100 97.8162 99.6049 98.6687 98.9017C99.5211 98.1984 100 97.2446 100 96.25C100 95.2554 99.5211 94.3016 98.6687 93.5983C97.8162 92.8951 96.6601 92.5 95.4545 92.5H15.1515C13.5441 92.5 12.0026 91.9732 10.866 91.0355C9.72944 90.0979 9.09091 88.8261 9.09091 87.5H95.4545C96.6601 87.5 97.8162 87.1049 98.6687 86.4017C99.5211 85.6984 100 84.7446 100 83.75V12.5C100 10.8585 99.6081 9.23303 98.8467 7.71646C98.0852 6.19989 96.9692 4.8219 95.5622 3.66117C94.1553 2.50043 92.485 1.57969 90.6467 0.951506C88.8085 0.323322 86.8382 0 84.8485 0H15.1515ZM24.2424 15H72.7273C74.3346 15 75.8762 15.5268 77.0128 16.4645C78.1494 17.4021 78.7879 18.6739 78.7879 20V25C78.7879 26.3261 78.1494 27.5979 77.0128 28.5355C75.8762 29.4732 74.3346 30 72.7273 30H24.2424C22.6351 30 21.0935 29.4732 19.9569 28.5355C18.8203 27.5979 18.1818 26.3261 18.1818 25V20C18.1818 18.6739 18.8203 17.4021 19.9569 16.4645C21.0935 15.5268 22.6351 15 24.2424 15Z" fill="#193059"/>
</svg>
