<svg width="16" height="10" viewBox="0 0 16 10" fill="none" xmlns="http://www.w3.org/2000/svg">
<path fill-rule="evenodd" clip-rule="evenodd" d="M0.5 5.00001C0.5 4.81768 0.598772 4.64281 0.774588 4.51388C0.950403 4.38495 1.18886 4.31251 1.4375 4.31251H12.2994L8.27375 1.36176C8.09771 1.23267 7.99882 1.05758 7.99882 0.875014C7.99882 0.692448 8.09771 0.517358 8.27375 0.388264C8.44979 0.25917 8.68855 0.186646 8.9375 0.186646C9.18645 0.186646 9.42521 0.25917 9.60125 0.388264L15.2262 4.51326C15.3136 4.57713 15.3828 4.65299 15.4301 4.73652C15.4773 4.82004 15.5017 4.90958 15.5017 5.00001C15.5017 5.09044 15.4773 5.17999 15.4301 5.26351C15.3828 5.34703 15.3136 5.4229 15.2262 5.48676L9.60125 9.61176C9.42521 9.74086 9.18645 9.81338 8.9375 9.81338C8.68855 9.81338 8.44979 9.74086 8.27375 9.61176C8.09771 9.48267 7.99882 9.30758 7.99882 9.12501C7.99882 8.94245 8.09771 8.76736 8.27375 8.63826L12.2994 5.68751H1.4375C1.18886 5.68751 0.950403 5.61508 0.774588 5.48615C0.598772 5.35722 0.5 5.18235 0.5 5.00001Z" fill="#193059"/>
</svg>
