<svg width="28" height="17" viewBox="0 0 28 17" fill="none" xmlns="http://www.w3.org/2000/svg">
<path d="M23.638 2.18425C22.62 0.728084 20.7536 0 18.7175 0H8.5372C6.50114 0 4.63474 0.728084 3.61671 2.18425C-0.285749 7.28084 -1.13411 14.9985 1.58064 16.6003C4.2954 18.2021 10.4036 11.2125 13.6274 11.2125C16.8511 11.2125 22.7897 18.2021 25.6741 16.6003C28.3888 14.9985 27.5405 7.28084 23.638 2.18425ZM10.2339 7.28084H8.5372V8.73701H6.84048V7.28084H5.14376V5.82467H6.84048V4.3685H8.5372V5.82467H10.2339V7.28084ZM19.3962 8.00892C19.3962 8.737 18.7175 9.31947 17.8692 9.31947C17.0208 9.31947 16.3421 8.737 16.3421 8.00892C16.3421 7.28084 17.0208 6.69837 17.8692 6.69837C18.7175 6.69837 19.3962 7.28084 19.3962 8.00892ZM22.62 5.09659C22.62 5.82467 21.9413 6.40714 21.0929 6.40714C20.2446 6.40714 19.5659 5.82467 19.5659 5.09659C19.5659 4.3685 20.2446 3.78604 21.0929 3.78604C21.9413 3.78604 22.62 4.3685 22.62 5.09659Z" fill="#193059"/>
</svg>
