<svg width="28" height="18" viewBox="0 0 28 18" fill="none" xmlns="http://www.w3.org/2000/svg">
<path d="M23.8963 3.05148C22.8783 1.59532 21.0119 0.867233 18.9758 0.867233H8.7955C6.75944 0.867233 4.89304 1.59532 3.87501 3.05148C-0.0274482 8.14807 -0.875809 15.8658 1.83895 17.4675C4.5537 19.0693 10.6619 12.0797 13.8857 12.0797C17.1094 12.0797 23.048 19.0693 25.9324 17.4675C28.6471 15.8658 27.7988 8.14807 23.8963 3.05148ZM10.4922 8.14807H8.7955V9.60424H7.09878V8.14807H5.40206V6.6919H7.09878V5.23574H8.7955V6.6919H10.4922V8.14807ZM19.6545 8.87615C19.6545 9.60424 18.9758 10.1867 18.1275 10.1867C17.2791 10.1867 16.6004 9.60424 16.6004 8.87615C16.6004 8.14807 17.2791 7.5656 18.1275 7.5656C18.9758 7.5656 19.6545 8.14807 19.6545 8.87615ZM22.8783 5.96382C22.8783 6.6919 22.1996 7.27437 21.3512 7.27437C20.5029 7.27437 19.8242 6.6919 19.8242 5.96382C19.8242 5.23574 20.5029 4.65327 21.3512 4.65327C22.1996 4.65327 22.8783 5.23574 22.8783 5.96382Z" fill="#193059"/>
</svg>
