<svg width="18" height="24" viewBox="0 0 18 24" fill="none" xmlns="http://www.w3.org/2000/svg">
<path fill-rule="evenodd" clip-rule="evenodd" d="M11.25 1.5C11.0511 1.5 10.8604 1.42098 10.7197 1.28033C10.5791 1.13968 10.5 0.948912 10.5 0.75C10.5 0.551088 10.5791 0.360322 10.7197 0.21967C10.8604 0.0790176 11.0511 0 11.25 0L17.25 0C17.4489 0 17.6397 0.0790176 17.7804 0.21967C17.921 0.360322 18 0.551088 18 0.75V6.75C18 6.94891 17.921 7.13968 17.7804 7.28033C17.6397 7.42098 17.4489 7.5 17.25 7.5C17.0511 7.5 16.8604 7.42098 16.7197 7.28033C16.5791 7.13968 16.5 6.94891 16.5 6.75V2.5605L11.325 7.7355C11.7709 8.59365 12.0028 9.54686 12.0009 10.5139C11.9989 11.481 11.7633 12.4333 11.3139 13.2896C10.8646 14.146 10.215 14.8811 9.42031 15.4322C8.62565 15.9834 7.70954 16.3342 6.75003 16.455V19.5H9.00003C9.19895 19.5 9.38971 19.579 9.53036 19.7197C9.67102 19.8603 9.75003 20.0511 9.75003 20.25C9.75003 20.4489 9.67102 20.6397 9.53036 20.7803C9.38971 20.921 9.19895 21 9.00003 21H6.75003V23.25C6.75003 23.4489 6.67102 23.6397 6.53036 23.7803C6.38971 23.921 6.19895 24 6.00003 24C5.80112 24 5.61036 23.921 5.4697 23.7803C5.32905 23.6397 5.25003 23.4489 5.25003 23.25V21H3.00003C2.80112 21 2.61036 20.921 2.4697 20.7803C2.32905 20.6397 2.25003 20.4489 2.25003 20.25C2.25003 20.0511 2.32905 19.8603 2.4697 19.7197C2.61036 19.579 2.80112 19.5 3.00003 19.5H5.25003V16.455C4.28979 16.3337 3.37314 15.982 2.57828 15.4298C1.78343 14.8775 1.13396 14.1412 0.685301 13.2836C0.236642 12.426 0.00210784 11.4726 0.00170949 10.5047C0.00131115 9.53688 0.235061 8.58328 0.683013 7.72532C1.13097 6.86735 1.77983 6.13049 2.57423 5.5776C3.36863 5.02471 4.28499 4.67221 5.24513 4.55016C6.20527 4.42812 7.18069 4.54016 8.08815 4.87672C8.99561 5.21329 9.80818 5.76439 10.4565 6.483L15.4395 1.5H11.25ZM9.75453 8.019C9.09633 7.02324 8.06953 6.32974 6.9 6.09106C5.73048 5.85237 4.51404 6.08805 3.51828 6.74625C2.52253 7.40445 1.82903 8.43126 1.59034 9.60078C1.35165 10.7703 1.58733 11.9867 2.24553 12.9825C2.90393 13.9783 3.93093 14.6717 5.10059 14.9102C6.27026 15.1488 7.48678 14.9129 8.48253 14.2545C9.47829 13.5961 10.1717 12.5691 10.4103 11.3994C10.6488 10.2298 10.4129 9.01326 9.75453 8.0175V8.019Z" fill="#193059"/>
</svg>
