<svg width="35" height="31" viewBox="0 0 35 31" fill="none" xmlns="http://www.w3.org/2000/svg">
<path d="M31.6777 15.3467L18.0277 3.64045C17.9294 3.55593 17.8127 3.48888 17.6842 3.44313C17.5557 3.39738 17.4179 3.37384 17.2788 3.37384C17.1396 3.37384 17.0019 3.39738 16.8734 3.44313C16.7449 3.48888 16.6281 3.55593 16.5298 3.64045L2.87985 15.3467C2.48218 15.688 2.25684 16.1515 2.25684 16.635C2.25684 17.639 3.20793 18.4552 4.37774 18.4552H5.81597V26.8083C5.81597 27.3117 6.28986 27.7184 6.87642 27.7184H15.1579V21.3477H18.8695V27.7184H27.6811C28.2677 27.7184 28.7416 27.3117 28.7416 26.8083V18.4552H30.1798C30.7432 18.4552 31.2834 18.2647 31.681 17.9206C32.5062 17.2095 32.5062 16.0577 31.6777 15.3467Z" fill="#193059"/>
</svg>
