<svg width="10" height="10" viewBox="0 0 10 10" fill="none" xmlns="http://www.w3.org/2000/svg">
<path d="M7.5 4.58331C7.64167 4.58331 7.77917 4.59581 7.91667 4.61665V1.66665C7.91667 1.20831 7.54167 0.833313 7.08333 0.833313H2.08333C1.625 0.833313 1.25 1.20831 1.25 1.66665V8.33331C1.25 8.79165 1.625 9.16665 2.08333 9.16665H5.10833C4.80313 8.72961 4.62362 8.21723 4.58935 7.68527C4.55508 7.15331 4.66736 6.62214 4.91397 6.14955C5.16057 5.67696 5.53206 5.28105 5.98802 5.0049C6.44398 4.72875 6.96694 4.58293 7.5 4.58331ZM2.91667 4.58331V1.66665H5V4.58331L3.95833 3.95831L2.91667 4.58331Z" fill="#111111"/>
<path d="M7.50008 5.41669C6.35008 5.41669 5.41675 6.35002 5.41675 7.50002C5.41675 8.65002 6.35008 9.58335 7.50008 9.58335C8.65008 9.58335 9.58341 8.65002 9.58341 7.50002C9.58341 6.35002 8.65008 5.41669 7.50008 5.41669ZM6.97925 8.54169V6.45835L8.64591 7.50002L6.97925 8.54169Z" fill="#111111"/>
</svg>
