<svg width="10" height="10" viewBox="0 0 10 10" fill="none" xmlns="http://www.w3.org/2000/svg">
<path d="M1.25 1.875V2.5H8.125V7.5H3.75V8.125H9.375V7.5H8.75V1.875H1.25ZM2.50062 2.8125C2.1694 2.81365 1.85206 2.9457 1.61779 3.17985C1.38352 3.41401 1.25132 3.73128 1.25 4.0625C1.25 4.74969 1.81375 5.3125 2.50062 5.3125C2.83168 5.31118 3.1488 5.17904 3.38283 4.94489C3.61687 4.71074 3.74885 4.39356 3.75 4.0625C3.75 3.37594 3.18687 2.8125 2.50062 2.8125ZM4.375 3.125V3.75H5.9375V3.125H4.375ZM6.5625 3.125V3.75H7.5V3.125H6.5625ZM2.50062 3.4375C2.84875 3.4375 3.125 3.71344 3.125 4.0625C3.125 4.4125 2.84906 4.6875 2.50062 4.6875C2.15062 4.6875 1.875 4.4125 1.875 4.0625C1.875 3.71344 2.15094 3.4375 2.50062 3.4375ZM4.375 4.375V5H7.5V4.375H4.375ZM1.25 5.625V8.125H1.875V6.25H2.8125V8.125H3.4375V6.45563L4.0825 6.79688C4.26531 6.89375 4.485 6.89344 4.6675 6.79688V6.7975L5.77063 6.21406L5.47906 5.66094L4.37562 6.24438L3.40812 5.73375C3.2731 5.66241 3.12271 5.62509 2.97 5.625H1.25Z" fill="#111111"/>
</svg>
