<svg width="30" height="28" viewBox="0 0 30 28" fill="none" xmlns="http://www.w3.org/2000/svg">
<path d="M1.66675 7.77305V4.61702C1.66675 3.77999 2.01794 2.97724 2.64306 2.38537C3.26818 1.7935 4.11603 1.46099 5.00008 1.46099H8.33341L1.66675 7.77305ZM1.66675 20.3972V23.5532C1.66675 24.3902 2.01794 25.193 2.64306 25.7848C3.26818 26.3767 4.11603 26.7092 5.00008 26.7092H8.33341L1.66675 20.3972ZM21.6667 1.46099H25.0001C25.8841 1.46099 26.732 1.7935 27.3571 2.38537C27.9822 2.97724 28.3334 3.77999 28.3334 4.61702V7.77305L21.6667 1.46099ZM21.6667 26.7092H25.0001C25.8841 26.7092 26.732 26.3767 27.3571 25.7848C27.9822 25.193 28.3334 24.3902 28.3334 23.5532V20.3972L21.6667 26.7092ZM15.0001 14.8741L21.6667 10.9291L15.0001 14.8741ZM8.33341 10.9291L15.0001 14.8741V21.9752L21.6667 18.0301V10.9291L15.0001 6.98404L8.33341 10.9291Z" stroke="#262F56" stroke-width="2" stroke-linecap="round" stroke-linejoin="round"/>
<path d="M8.3335 10.9291V18.0301L15.0002 21.9752" stroke="#262F56" stroke-width="2" stroke-linecap="round" stroke-linejoin="round"/>
</svg>
