<svg width="30" height="47" viewBox="0 0 30 47" fill="none" xmlns="http://www.w3.org/2000/svg">
<path d="M18.3923 33.3985V44.3529C18.3923 44.5424 18.3178 44.7244 18.1848 44.8595C18.0519 44.9946 17.8711 45.072 17.6816 45.0749H12.4695C12.2799 45.072 12.0992 44.9946 11.9662 44.8595C11.8332 44.7244 11.7587 44.5424 11.7587 44.3529V33.3985M15.0755 1.07672C17.3525 1.07672 19.5362 1.98124 21.1462 3.59129C22.7563 5.20135 23.6608 7.38505 23.6608 9.66201V20.2893C23.6608 22.5662 22.7563 24.7499 21.1462 26.36C19.5362 27.97 17.3525 28.8746 15.0755 28.8746V28.8746C12.7986 28.8746 10.6149 27.97 9.00481 26.36C7.39475 24.7499 6.49023 22.5662 6.49023 20.2893V9.66201C6.49023 7.38505 7.39475 5.20135 9.00481 3.59129C10.6149 1.98124 12.7986 1.07672 15.0755 1.07672V1.07672Z" stroke="#193059" stroke-width="2" stroke-linecap="round" stroke-linejoin="round"/>
<path d="M1.79785 22.8389C2.40824 25.9115 4.06532 28.6773 6.48663 30.6649C8.90795 32.6526 11.9436 33.739 15.0763 33.739C18.2089 33.739 21.2446 32.6526 23.6659 30.6649C26.0872 28.6773 27.7443 25.9115 28.3547 22.8389" stroke="#193059" stroke-width="2" stroke-linecap="round" stroke-linejoin="round"/>
</svg>
