<svg width="23" height="19" viewBox="0 0 23 19" fill="none" xmlns="http://www.w3.org/2000/svg">
<path d="M21.6562 0.930665H16.0703C14.8716 0.930665 13.6997 1.2749 12.6914 1.92432L11.5 2.68848L10.3086 1.92432C9.3013 1.27503 8.12811 0.930024 6.92969 0.930665H1.34375C0.911621 0.930665 0.5625 1.27979 0.5625 1.71191V15.5791C0.5625 16.0112 0.911621 16.3604 1.34375 16.3604H6.92969C8.12842 16.3604 9.30029 16.7046 10.3086 17.354L11.3926 18.0522C11.4243 18.0718 11.4609 18.084 11.4976 18.084C11.5342 18.084 11.5708 18.0742 11.6025 18.0522L12.6865 17.354C13.6973 16.7046 14.8716 16.3604 16.0703 16.3604H21.6562C22.0884 16.3604 22.4375 16.0112 22.4375 15.5791V1.71191C22.4375 1.27979 22.0884 0.930665 21.6562 0.930665ZM6.92969 14.6025H2.32031V2.68848H6.92969C7.79394 2.68848 8.63379 2.93506 9.35889 3.40137L10.5503 4.16553L10.7188 4.27539V15.5547C9.55664 14.9297 8.25781 14.6025 6.92969 14.6025ZM20.6797 14.6025H16.0703C14.7422 14.6025 13.4434 14.9297 12.2812 15.5547V4.27539L12.4497 4.16553L13.6411 3.40137C14.3662 2.93506 15.2061 2.68848 16.0703 2.68848H20.6797V14.6025ZM8.68994 5.81348H4.15381C4.05859 5.81348 3.98047 5.89648 3.98047 5.99658V7.09522C3.98047 7.19531 4.05859 7.27832 4.15381 7.27832H8.6875C8.78271 7.27832 8.86084 7.19531 8.86084 7.09522V5.99658C8.86328 5.89648 8.78516 5.81348 8.68994 5.81348ZM14.1367 5.99658V7.09522C14.1367 7.19531 14.2148 7.27832 14.3101 7.27832H18.8438C18.939 7.27832 19.0171 7.19531 19.0171 7.09522V5.99658C19.0171 5.89648 18.939 5.81348 18.8438 5.81348H14.3101C14.2148 5.81348 14.1367 5.89648 14.1367 5.99658ZM8.68994 9.23145H4.15381C4.05859 9.23145 3.98047 9.31445 3.98047 9.41455V10.5132C3.98047 10.6133 4.05859 10.6963 4.15381 10.6963H8.6875C8.78271 10.6963 8.86084 10.6133 8.86084 10.5132V9.41455C8.86328 9.31445 8.78516 9.23145 8.68994 9.23145ZM18.8462 9.23145H14.3101C14.2148 9.23145 14.1367 9.31445 14.1367 9.41455V10.5132C14.1367 10.6133 14.2148 10.6963 14.3101 10.6963H18.8438C18.939 10.6963 19.0171 10.6133 19.0171 10.5132V9.41455C19.0195 9.31445 18.9414 9.23145 18.8462 9.23145Z" fill="#193059"/>
</svg>
