<svg width="26" height="22" viewBox="0 0 26 22" fill="none" xmlns="http://www.w3.org/2000/svg">
<path d="M9.11286 20.7938C10.059 21.3379 11.1822 21.485 12.2365 21.2027C13.2908 20.9203 14.1903 20.2317 14.7379 19.2875L19.9629 10.25C20.1108 9.99397 20.2068 9.71129 20.2453 9.41814C20.2839 9.12498 20.2643 8.8271 20.1877 8.54151C20.1111 8.25593 19.9789 7.98824 19.7988 7.75377C19.6187 7.51929 19.3941 7.32262 19.1379 7.17501L17.5754 6.27501M8.90661 20.675C8.04699 20.1771 7.42006 19.3584 7.16344 18.3988C6.90682 17.4391 7.04148 16.4168 7.53786 15.5563L11.4941 8.68126C11.7908 8.16473 11.8706 7.55161 11.716 6.97634C11.5613 6.40108 11.1848 5.91062 10.6691 5.61251L7.79411 3.95626C7.53914 3.80741 7.25723 3.7105 6.96463 3.6711C6.67204 3.63171 6.37453 3.65061 6.08927 3.72672C5.80401 3.80282 5.53664 3.93463 5.30255 4.11455C5.06847 4.29447 4.8723 4.51893 4.72536 4.77501L1.51911 10.375C0.830119 11.5766 0.645186 13.0023 1.00478 14.3399C1.36438 15.6776 2.23922 16.8183 3.43786 17.5125L5.66286 18.8L8.90661 20.675Z" stroke="white" stroke-linecap="round" stroke-linejoin="round"/>
<path d="M23.1248 4.63751C23.5941 4.90695 24.0056 5.26634 24.3357 5.6951C24.6658 6.12385 24.908 6.61354 25.0485 7.13609C25.189 7.65865 25.225 8.20379 25.1545 8.74029C25.0839 9.27678 24.9082 9.79407 24.6373 10.2625L20.9498 16.625C20.6505 17.1412 20.1589 17.5178 19.5826 17.6724C19.0063 17.827 18.3923 17.747 17.8748 17.45L16.3123 16.5438M9.35605 4.87501L10.2811 3.27502C10.9777 2.07044 12.1241 1.19172 13.4683 0.831941C14.8125 0.472158 16.2446 0.660746 17.4498 1.35626L19.6748 2.64377L22.9186 4.51877C22.0573 4.0229 21.0344 3.88919 20.0746 4.14701C19.1149 4.40483 18.2967 5.03308 17.7998 5.89377L12.3748 15.25C12.0767 15.7657 11.5862 16.1422 11.011 16.2969C10.4357 16.4515 9.82258 16.3717 9.30605 16.075L7.7373 15.1688" stroke="white" stroke-linecap="round" stroke-linejoin="round"/>
</svg>
