<svg width="35" height="36" viewBox="0 0 35 36" fill="none" xmlns="http://www.w3.org/2000/svg">
<path d="M10.667 35.6667C9.75033 35.6667 8.96588 35.3406 8.31366 34.6884C7.66033 34.035 7.33366 33.25 7.33366 32.3334C7.33366 31.4167 7.66033 30.6317 8.31366 29.9784C8.96588 29.3261 9.75033 29 10.667 29C11.5837 29 12.3681 29.3261 13.0203 29.9784C13.6737 30.6317 14.0003 31.4167 14.0003 32.3334C14.0003 33.25 13.6737 34.035 13.0203 34.6884C12.3681 35.3406 11.5837 35.6667 10.667 35.6667ZM27.3337 35.6667C26.417 35.6667 25.6325 35.3406 24.9803 34.6884C24.327 34.035 24.0003 33.25 24.0003 32.3334C24.0003 31.4167 24.327 30.6317 24.9803 29.9784C25.6325 29.3261 26.417 29 27.3337 29C28.2503 29 29.0353 29.3261 29.6887 29.9784C30.3409 30.6317 30.667 31.4167 30.667 32.3334C30.667 33.25 30.3409 34.035 29.6887 34.6884C29.0353 35.3406 28.2503 35.6667 27.3337 35.6667ZM19.0003 14.8334C18.5281 14.8334 18.1325 14.6734 17.8137 14.3534C17.4937 14.0345 17.3337 13.6389 17.3337 13.1667C17.3337 12.6945 17.4937 12.2984 17.8137 11.9784C18.1325 11.6595 18.5281 11.5 19.0003 11.5C19.4725 11.5 19.8687 11.6595 20.1887 11.9784C20.5075 12.2984 20.667 12.6945 20.667 13.1667C20.667 13.6389 20.5075 14.0345 20.1887 14.3534C19.8687 14.6734 19.4725 14.8334 19.0003 14.8334ZM17.3337 9.00002V0.666687H20.667V9.00002H17.3337ZM10.667 27.3334C9.41699 27.3334 8.45866 26.7845 7.79199 25.6867C7.12533 24.59 7.11144 23.5 7.75033 22.4167L10.0003 18.3334L4.00033 5.66669H0.666992V2.33335H6.12533L13.2087 17.3334H24.917L31.3753 5.66669L34.292 7.25002L27.8337 18.9167C27.5281 19.4722 27.1253 19.9028 26.6253 20.2084C26.1253 20.5139 25.5559 20.6667 24.917 20.6667H12.5003L10.667 24H30.667V27.3334H10.667Z" fill="#193059"/>
</svg>
