<svg width="24" height="24" viewBox="0 0 24 24" fill="none" xmlns="http://www.w3.org/2000/svg">
<path d="M12 12.8C11.7878 12.8 11.5843 12.8843 11.4343 13.0343C11.2842 13.1843 11.2 13.3878 11.2 13.6C11.2 13.8122 11.2842 14.0156 11.4343 14.1657C11.5843 14.3157 11.7878 14.4 12 14.4C12.2121 14.4 12.4156 14.3157 12.5656 14.1657C12.7157 14.0156 12.8 13.8122 12.8 13.6C12.8 13.3878 12.7157 13.1843 12.5656 13.0343C12.4156 12.8843 12.2121 12.8 12 12.8Z" fill="#193059"/>
<path fill-rule="evenodd" clip-rule="evenodd" d="M19.2 9.9056L12.8 6.7056V4.8H17.6V0H11.2V6.7056L4.8 9.9056V12.8H1.6V22.4H0V24H9.6V17.6H14.4V24H24V22.4H22.4V12.8H19.2V9.9056ZM20.8 22.4V14.4H19.2V22.4H20.8ZM4.8 22.4H3.2V14.4H4.8V22.4ZM9.6 13.6C9.6 12.9635 9.85286 12.353 10.3029 11.9029C10.753 11.4529 11.3635 11.2 12 11.2C12.6365 11.2 13.247 11.4529 13.6971 11.9029C14.1471 12.353 14.4 12.9635 14.4 13.6C14.4 14.2365 14.1471 14.847 13.6971 15.2971C13.247 15.7471 12.6365 16 12 16C11.3635 16 10.753 15.7471 10.3029 15.2971C9.85286 14.847 9.6 14.2365 9.6 13.6Z" fill="#193059"/>
<path d="M12.8 24V19.2H11.2V24H12.8Z" fill="#193059"/>
</svg>
