<svg width="24" height="24" viewBox="0 0 24 24" fill="none" xmlns="http://www.w3.org/2000/svg">
<path d="M16.9181 7.21874L8.07753 12.7444C8.23255 13.2379 8.28363 13.7582 8.22753 14.2725L16.4288 17.3475C16.9527 16.6001 17.7312 16.0694 18.6184 15.8549C19.5056 15.6404 20.4406 15.7569 21.248 16.1825C22.0555 16.6081 22.68 17.3136 23.0045 18.1667C23.329 19.0198 23.3312 19.962 23.0108 20.8166C22.6903 21.6713 22.0691 22.3797 21.2636 22.8091C20.4582 23.2385 19.5238 23.3593 18.6356 23.1491C17.7474 22.9388 16.9664 22.4118 16.4389 21.6668C15.9115 20.9219 15.6739 20.0101 15.7706 19.1025L7.57128 16.0275C7.1319 16.6542 6.51126 17.1315 5.79273 17.3952C5.0742 17.6589 4.29218 17.6964 3.55171 17.5027C2.81123 17.309 2.14776 16.8933 1.65039 16.3116C1.15303 15.7298 0.845592 15.0098 0.769374 14.2482C0.693157 13.4866 0.851809 12.7199 1.22402 12.0511C1.59623 11.3823 2.16418 10.8435 2.85159 10.5069C3.53899 10.1703 4.31294 10.0521 5.06947 10.1681C5.82601 10.2842 6.52891 10.629 7.08378 11.1562L15.9225 5.63061C15.6476 4.76026 15.6996 3.81954 16.0687 2.98477C16.4378 2.15 17.0987 1.4785 17.9274 1.09614C18.7562 0.71378 19.696 0.646807 20.5706 0.907775C21.4452 1.16874 22.1947 1.73974 22.6784 2.51373C23.1621 3.28772 23.347 4.21157 23.1983 5.1121C23.0496 6.01263 22.5776 6.82803 21.8708 7.40544C21.1639 7.98286 20.2707 8.28265 19.3586 8.24862C18.4465 8.2146 17.5781 7.84909 16.9163 7.22061L16.9181 7.21874Z" fill="#111111"/>
</svg>
