<svg width="15" height="13" viewBox="0 0 15 13" fill="none" xmlns="http://www.w3.org/2000/svg">
<path d="M11.875 2.12501C14.3675 4.50501 14.3825 8.51063 11.875 10.875M1.25 8.34938V4.65001C1.25 4.29126 1.53 4.00001 1.875 4.00001H4.11625C4.19896 3.99971 4.28075 3.98267 4.35669 3.94991C4.43264 3.91715 4.50116 3.86935 4.55813 3.80938L6.43313 1.69188C6.82688 1.28188 7.5 1.57251 7.5 2.15188V10.8481C7.5 11.4319 6.81875 11.72 6.4275 11.3019L4.55875 9.19626C4.50162 9.13459 4.43241 9.08534 4.35542 9.05157C4.27843 9.01781 4.19532 9.00026 4.11125 9.00001H1.875C1.53 9.00001 1.25 8.70876 1.25 8.34938ZM10 4.31251C10.8331 5.42376 10.8331 7.57626 10 8.68751V4.31251Z" stroke="#111111" stroke-width="2" stroke-linecap="round" stroke-linejoin="round"/>
</svg>
