<svg width="35" height="31" viewBox="0 0 35 31" fill="none" xmlns="http://www.w3.org/2000/svg">
<path d="M17.1644 2.80429C8.96582 2.80429 2.31812 8.50951 2.31812 15.5458C2.31812 22.582 8.96582 28.2872 17.1644 28.2872C25.363 28.2872 32.0107 22.582 32.0107 15.5458C32.0107 8.50951 25.363 2.80429 17.1644 2.80429ZM21.9398 15.742L14.7022 20.2612C14.6625 20.2857 14.6157 20.3003 14.567 20.3035C14.5183 20.3066 14.4695 20.2982 14.426 20.279C14.3825 20.2599 14.346 20.2309 14.3205 20.1952C14.295 20.1594 14.2814 20.1183 14.2813 20.0764V11.0436C14.2812 11.0016 14.2946 10.9603 14.32 10.9244C14.3455 10.8886 14.3821 10.8594 14.4256 10.8403C14.4692 10.8211 14.5181 10.8127 14.567 10.816C14.6158 10.8192 14.6626 10.834 14.7022 10.8587L21.9398 15.3751C21.974 15.3959 22.0019 15.4234 22.0211 15.4553C22.0404 15.4872 22.0504 15.5226 22.0504 15.5586C22.0504 15.5945 22.0404 15.6299 22.0211 15.6618C22.0019 15.6937 21.974 15.7212 21.9398 15.742Z" fill="#193059"/>
</svg>
