<svg width="25" height="24" viewBox="0 0 25 24" fill="none" xmlns="http://www.w3.org/2000/svg">
<path d="M20.9595 17.8969C20.499 16.8496 19.8307 15.8984 18.9918 15.0961C18.1554 14.2915 17.1647 13.65 16.0743 13.207C16.0645 13.2023 16.0547 13.2 16.045 13.1953C17.566 12.1406 18.5547 10.4227 18.5547 8.48438C18.5547 5.27344 15.8448 2.67188 12.5001 2.67188C9.15533 2.67188 6.44537 5.27344 6.44537 8.48438C6.44537 10.4227 7.43414 12.1406 8.95514 13.1977C8.94537 13.2023 8.93561 13.2047 8.92584 13.2094C7.83209 13.6523 6.85065 14.2875 6.00836 15.0984C5.17025 15.9013 4.50203 16.8524 4.04059 17.8992C3.58727 18.924 3.34279 20.0228 3.32037 21.1359C3.31972 21.161 3.32429 21.1858 3.33382 21.2091C3.34334 21.2324 3.35762 21.2537 3.37582 21.2716C3.39403 21.2895 3.41578 21.3037 3.4398 21.3134C3.46382 21.3231 3.48962 21.3281 3.51569 21.3281H4.98053C5.08795 21.3281 5.1734 21.2461 5.17584 21.1453C5.22467 19.3359 5.98151 17.6414 7.3194 16.357C8.70367 15.0281 10.5421 14.2969 12.5001 14.2969C14.4581 14.2969 16.2964 15.0281 17.6807 16.357C19.0186 17.6414 19.7755 19.3359 19.8243 21.1453C19.8267 21.2484 19.9122 21.3281 20.0196 21.3281H21.4844C21.5105 21.3281 21.5363 21.3231 21.5603 21.3134C21.5843 21.3037 21.6061 21.2895 21.6243 21.2716C21.6425 21.2537 21.6568 21.2324 21.6663 21.2091C21.6758 21.1858 21.6804 21.161 21.6797 21.1359C21.6553 20.0156 21.4136 18.9258 20.9595 17.8969V17.8969ZM12.5001 12.5156C11.3795 12.5156 10.3248 12.0961 9.53131 11.3344C8.73785 10.5727 8.30084 9.56016 8.30084 8.48438C8.30084 7.40859 8.73785 6.39609 9.53131 5.63437C10.3248 4.87266 11.3795 4.45312 12.5001 4.45312C13.6207 4.45312 14.6754 4.87266 15.4688 5.63437C16.2623 6.39609 16.6993 7.40859 16.6993 8.48438C16.6993 9.56016 16.2623 10.5727 15.4688 11.3344C14.6754 12.0961 13.6207 12.5156 12.5001 12.5156Z" fill="black"/>
</svg>
