<svg width="13" height="16" viewBox="0 0 13 16" fill="none" xmlns="http://www.w3.org/2000/svg">
<path d="M6.5 8.00001C8.22589 8.00001 9.625 6.50763 9.625 4.66668C9.625 2.82573 8.22589 1.33334 6.5 1.33334C4.77411 1.33334 3.375 2.82573 3.375 4.66668C3.375 6.50763 4.77411 8.00001 6.5 8.00001Z" stroke="#6B7280" stroke-width="2"/>
<path d="M9.62504 9.33334H9.84504C10.302 9.33348 10.7431 9.51159 11.0856 9.8342C11.4281 10.1568 11.6484 10.6017 11.705 11.0853L11.9494 13.168C11.9714 13.3556 11.9557 13.5461 11.9034 13.7268C11.8511 13.9074 11.7634 14.0741 11.6461 14.2159C11.5287 14.3576 11.3845 14.4711 11.2229 14.5488C11.0613 14.6265 10.886 14.6667 10.7088 14.6667H2.29129C2.11403 14.6667 1.93878 14.6265 1.77719 14.5488C1.6156 14.4711 1.47135 14.3576 1.35402 14.2159C1.23669 14.0741 1.14897 13.9074 1.09667 13.7268C1.04436 13.5461 1.02868 13.3556 1.05066 13.168L1.29441 11.0853C1.3511 10.6015 1.57155 10.1564 1.91431 9.83376C2.25707 9.51112 2.69852 9.33316 3.15566 9.33334H3.37504" stroke="#6B7280" stroke-width="2" stroke-linecap="round" stroke-linejoin="round"/>
</svg>
