<svg width="18" height="18" viewBox="0 0 18 18" fill="none" xmlns="http://www.w3.org/2000/svg">
<path d="M17.1999 1.32995C17.1999 1.11195 17.0269 0.933594 16.8154 0.933594L13.6435 0.948458L8.86654 6.81944L4.09433 0.953413L0.917671 0.938548C0.706213 0.938548 0.533203 1.11195 0.533203 1.3349C0.533203 1.42904 0.566844 1.51822 0.624514 1.59253L6.87692 9.27188L0.624514 16.9463C0.566442 17.0189 0.53422 17.1098 0.533203 17.2039C0.533203 17.4219 0.706213 17.6003 0.917671 17.6003L4.09433 17.5854L8.86654 11.7144L13.6387 17.5804L16.8106 17.5953C17.0221 17.5953 17.1951 17.4219 17.1951 17.1989C17.1951 17.1048 17.1614 17.0156 17.1038 16.9413L10.861 9.26693L17.1134 1.58758C17.171 1.51822 17.1999 1.42408 17.1999 1.32995Z" fill="#F8F8F8"/>
</svg>
