<svg width="16" height="16" viewBox="0 0 16 16" fill="none" xmlns="http://www.w3.org/2000/svg">
<path d="M14.25 0.5H1.75C1.41848 0.5 1.10054 0.631696 0.866116 0.866116C0.631696 1.10054 0.5 1.41848 0.5 1.75V14.25C0.5 14.5815 0.631696 14.8995 0.866116 15.1339C1.10054 15.3683 1.41848 15.5 1.75 15.5H14.25C14.5815 15.5 14.8995 15.3683 15.1339 15.1339C15.3683 14.8995 15.5 14.5815 15.5 14.25V1.75C15.5 1.41848 15.3683 1.10054 15.1339 0.866116C14.8995 0.631696 14.5815 0.5 14.25 0.5V0.5ZM1.75 14.25V1.75H14.25V14.25H1.75Z" fill="black"/>
</svg>
